<?xml version="1.0" encoding="UTF-8" standalone="no"?>
<!-- Created with Inkscape (http://www.inkscape.org/) -->

<svg
   width="77.10495mm"
   height="50.344044mm"
   viewBox="0 0 77.10495 50.344044"
   version="1.1"
   id="svg1"
   xml:space="preserve"
   xmlns:inkscape="http://www.inkscape.org/namespaces/inkscape"
   xmlns:sodipodi="http://sodipodi.sourceforge.net/DTD/sodipodi-0.dtd"
   xmlns="http://www.w3.org/2000/svg"
   xmlns:svg="http://www.w3.org/2000/svg"><sodipodi:namedview
     id="namedview1"
     pagecolor="#ffffff"
     bordercolor="#000000"
     borderopacity="0.25"
     inkscape:showpageshadow="2"
     inkscape:pageopacity="0.0"
     inkscape:pagecheckerboard="0"
     inkscape:deskcolor="#d1d1d1"
     inkscape:document-units="mm"
     showguides="false" /><defs
     id="defs1" /><g
     inkscape:label="Layer 1"
     inkscape:groupmode="layer"
     id="layer1"
     transform="translate(-53.316697,-57.063525)"><g
       id="g10147"
       transform="translate(-6.2230896,-63.756163)"><path
         style="fill:#efdad3"
         d="m 94.094146,156.63623 -6.373933,-2.11354 c -6.481205,-4.17852 -19.001562,-1.01034 -20.685652,-5.76356 l -1.770929,-7.29855 33.263574,-16.94928 c 2.484124,-1.68581 5.375114,-2.73508 8.338844,-3.26657 2.15997,-0.7965 4.53653,-0.21691 6.79834,-0.28132 2.81855,0.33469 5.96795,0.37128 8.45126,1.90973 2.93492,1.12671 5.27911,3.26387 7.2004,5.65955 1.61879,2.40543 3.40133,5.11311 3.06578,8.14985 8.54903,23.4228 -26.69708,22.22008 -38.287684,19.95369 z m 35.592364,-19.89129 c 0.33238,-3.36087 0.67937,-6.28405 -1.05581,-8.94817 -1.75117,-1.25217 -2.808,-3.36004 -5.00456,-3.97162 -1.66563,-0.69812 -4.65084,-3.3235 -5.73983,-0.77096 -1.13764,2.7805 1.652,7.6188 0.10895,10.16805 0.007,2.57749 -2.68633,2.01734 -1.48179,4.60356 0.37909,1.27221 -0.67327,0.58305 0.86012,1.19287 2.40932,0.76352 2.44321,2.55034 4.66514,1.73815 2.75037,-1.36956 2.45125,-3.98492 5.37052,-4.92302 z m -55.12416,3.09383 c 0.120071,-1.94877 3.389951,-4.61602 4.318323,-2.03572 z m 30.90824,-12.92754 c 2.1017,-1.13146 4.5932,-3.23929 4.19926,-5.80961 -1.86351,-0.45477 -3.77818,0.78328 -5.66804,0.97588 -1.41844,1.01997 -5.677088,1.18238 -5.24987,3.5094 0.82786,0.98339 2.30076,1.57822 3.60227,1.52539 1.01724,-0.1049 2.18361,0.2342 3.11638,-0.20106 z"
         id="path10149"
         sodipodi:nodetypes="cccccccccccccccccccccccccccccc" /><path
         style="fill:#f8c7ba"
         d="m 131.78167,137.4947 c -6.10428,-0.56282 -15.17865,9.84725 -18.80036,1.10428 1.4592,-5.16997 1.23028,-13.57607 5.44814,-16.79111 6.90422,-0.49198 14.42906,9.27313 13.35222,15.68683 z m -46.072283,6.55197 c -4.873157,1.1757 -5.396003,-4.55869 -8.703648,-4.86513 -0.30356,6.34381 -7.527018,10.4443 -11.402744,3.9762 -1.71398,-5.22539 5.83341,-7.93142 4.365704,-13.81264 3.456242,-9.11677 11.622132,9.09249 14.948554,-1.88667 4.864101,-7.58978 10.50933,4.51975 8.666026,9.3484 -1.118072,3.70307 -4.745666,5.51947 -7.873892,7.23984 z m -19.20791,-1.0101 c -1.366224,-2.0992 -2.291751,1.48557 0,0 z m 9.691198,-0.25927 c -0.122978,-3.02463 -4.721001,-0.74981 -0.441864,0.003 l 0.37621,-0.003 z m 4.755027,-0.70105 c 4.137119,-1.14378 -0.09622,-3.23168 0,0 z M 66.465197,141.8671 c -0.910379,-2.62293 -3.007443,0.87063 0,0 z m 21.829733,-0.62831 c 2.127214,-1.01161 -2.549399,0.21428 0,0 z m -1.380897,-0.92572 c 2.905528,-0.4632 -2.432054,-0.72916 0,0 z m -9.100566,4.50477 c -0.610581,-4.48737 4.575781,2.58253 0.386337,1.03565 z m 1.086685,1.665 c 0.499402,-2.7091 -1.593046,1.6928 0,0 z m 0.218662,-1.84448 c 0.949848,-3.81382 -3.884036,1.54326 0,0 z m 20.395744,-17.06888 c -6.303519,-3.59086 13.386762,-10.41086 11.481772,-3.88914 -1.82149,2.71596 -8.82414,5.0217 -11.481772,3.88914 z"
         id="path10148"
         sodipodi:nodetypes="ccccccccccccccccccccccccccccccccccc" /><path
         style="fill:#232120"
         d="m 116.49025,171.12964 c -2.02543,0.028 -3.79165,-1.89075 -3.3911,-3.90728 -0.33093,-2.63267 2.31897,-4.22976 4.43945,-5.07839 4.05655,-2.53224 9.38668,-3.14149 12.32573,-7.26699 1.12694,-1.59821 1.61519,-3.70745 0.84686,-5.46265 1.03416,-0.6216 1.3139,1.77294 1.16438,2.5401 -0.48529,2.05896 -1.30873,3.95323 -3.02,5.27049 -3.43899,2.93683 -8.09913,3.62487 -11.81777,6.12215 -2.33164,0.67926 -4.21927,3.36799 -2.86918,5.69081 1.07056,1.54747 3.35264,1.80975 4.61826,0.33925 2.39632,-2.75295 4.993,-6.00852 8.92037,-6.34054 2.31445,-0.58249 4.12952,-2.78505 5.61999,-4.51704 1.86095,-2.92441 2.76915,-6.38237 2.52613,-9.83531 -0.0405,-1.10911 -0.27964,-2.18445 -0.26964,-3.30341 -0.026,-1.22398 -2.39714,-5.56403 -3.04698,-3.56242 0.0652,4.91 -3.04419,9.03184 -6.43202,12.26402 -3.62984,2.92658 -7.85112,5.10804 -12.19662,6.74345 -2.2378,0.39192 -4.39882,1.79109 -6.6992,1.09704 -0.9656,-2.61942 1.64379,0.59847 3.03004,-0.90521 5.34164,-1.20398 10.33815,-3.7743 14.70697,-7.04071 2.44739,-1.96995 4.4762,-4.57042 5.87231,-7.38063 1.34739,-2.96109 1.1094,-6.23137 1.17637,-9.40806 1.51254,0.005 -0.29696,3.6319 2.02411,3.71511 2.54513,1.9242 2.38899,5.45926 2.61536,8.32392 0.14003,3.90349 -1.10247,7.90868 -3.46637,11.01117 -1.91398,1.41454 -3.5216,3.71604 -6.09484,3.70989 -2.97406,0.43425 -4.87846,3.00664 -6.80412,5.05283 -0.8451,1.09419 -2.29276,2.39005 -3.77849,2.12841 z m -23.504971,-1.28848 c -1.910758,-0.40975 -2.276152,-3.30988 -0.516044,-4.15775 1.976683,-1.33385 3.261081,-3.5767 3.17572,-5.96531 0.280609,-1.07564 -0.07013,-2.29259 0.17953,-3.33384 1.395374,0.27663 0.24815,2.77063 0.516044,3.97848 0.06379,2.70903 -1.854247,4.97804 -3.959031,6.53538 -1.116884,0.984 0.920407,2.86722 0.514769,0.43207 1.357343,-0.40072 0.115824,1.94212 1.353927,2.26793 -0.125647,0.27543 -0.963221,0.35493 -1.264915,0.24304 z m 2.559948,-0.5686 c -0.864782,0.23865 -2.134619,-1.25603 -1.063538,-1.58737 0.48154,0.6419 1.377602,1.19201 2.27705,0.54465 1.849163,-1.53172 3.294991,-3.57316 5.288151,-4.93967 -0.056,-1.91956 0.15282,-4.03762 1.90689,-5.22376 2.19531,-1.28142 5.74133,-1.4632 3.04397,-4.72094 -1.50915,-3.11243 -2.08279,-6.55657 -1.75971,-10.00052 0.0157,-1.05891 0.0338,-5.48767 1.15808,-3.96285 -0.82234,2.28136 -0.45788,4.84334 -0.54102,7.23362 0.1712,1.65831 0.38835,3.2971 1.19298,4.83471 0.35064,1.97077 3.58548,5.69029 -0.0665,5.95102 -2.8197,0.47174 -4.73818,3.39777 -4.17977,6.16588 -1.92449,1.79692 -3.756841,3.69199 -5.670222,5.50343 -0.547097,-0.0542 -1.022881,0.41054 -1.586381,0.2018 z m 8.348533,-6.13419 c -0.68534,-0.90147 1.49537,-3.65261 1.82526,-2.14646 -0.82864,0.41372 -0.90741,2.87688 -1.82526,2.14646 z m -27.575863,-5.42004 c -1.744172,0.36868 -1.200567,-3.72221 -0.163912,-2.14886 -1.158672,1.36229 3.30619,2.10348 0.163912,2.14886 z m 2.138848,-0.16505 c -1.168394,0.0622 -1.74638,-2.42069 -0.53819,-2.44569 -0.352978,2.46716 2.124715,1.75789 3.378488,0.93491 2.536553,-1.04258 5.35981,0.11429 7.874703,-0.88391 1.608227,0.45094 2.525589,-2.12721 3.582236,-1.74251 -0.612555,2.10093 -3.470272,2.54904 -5.405036,2.89 -2.325553,0.004 -4.754003,-0.32456 -6.860648,0.93756 -0.633463,0.24439 -1.348587,0.48942 -2.031553,0.30964 z m -4.700902,-0.46752 c -1.289492,-0.96401 0.55832,-3.45048 -1.979406,-2.23996 -2.710531,0.58369 -5.6211,2.22128 -8.387141,0.99371 -1.731947,-0.3763 -0.04555,-3.55249 -0.05758,-1.42987 0.898243,1.90707 3.950793,0.93643 5.577828,0.42749 2.168309,-1.01593 4.731823,-0.50739 6.660083,-1.99022 2.685545,-0.66379 5.210896,-1.78536 6.206302,-4.58431 3.514652,-4.6199 9.114366,-7.89924 14.992539,-7.79425 1.026385,1.11635 -2.123991,0.37629 -2.947679,0.8749 -2.57361,0.55781 -4.972738,1.56526 -7.10063,3.15008 -2.756551,1.75121 -4.564234,4.5441 -6.314029,7.1976 -1.912436,1.41992 -4.953324,1.02449 -6.3026,3.34207 -0.775418,0.87709 1.459511,2.00515 -0.08652,2.26781 -0.131883,0.0332 -0.165331,-0.16391 -0.261169,-0.21505 z m -12.807197,-0.78164 c -1.390526,-0.18509 -1.486335,-1.86438 -1.375383,-2.97575 1.083376,-2.98455 4.700141,-4.05424 7.528352,-4.79113 0.413308,1.57495 -4.290006,1.41901 -5.168158,3.07904 -2.098372,0.69299 -1.890144,5.05767 -0.461643,1.91948 1.585857,-0.0652 -0.926475,1.91075 1.158953,2.29052 0.07596,0.81464 -1.267175,0.40036 -1.682121,0.47784 z m 52.312724,-1.11441 c -1.14722,-1.76717 0.57156,-3.55543 0.41024,-0.98441 -0.0426,0.36441 0.28077,1.19416 -0.41024,0.98441 z m -2.21538,-0.70402 c -0.47611,-0.67818 0.87294,-3.03512 0.84219,-1.43275 -0.22926,0.26502 -0.13879,1.863 -0.84219,1.43275 z m -32.213509,-5.96502 c -0.541665,0.0339 -3.462632,-0.042 -1.660601,-0.62672 1.308616,-0.011 0.833444,-1.85066 1.314475,-2.5832 1.10711,0.45859 -0.400228,2.12177 0.824174,2.64698 1.656656,-0.57249 1.412703,1.17288 -0.100776,0.83362 -0.125757,-0.0902 -0.251515,-0.18045 -0.377272,-0.27068 z m 12.374179,-0.77848 c -0.723385,-0.48795 0.144507,-3.30852 0.4725,-1.613 -0.113488,0.46714 0.205064,1.70808 -0.4725,1.613 z m 1.961473,0.007 c -0.537363,-1.14437 0.664195,-3.19437 0.454497,-0.88979 -0.064,0.33096 0.198501,1.10436 -0.454497,0.88979 z m -3.961824,-1.26364 c -0.206135,-2.23826 1.995324,-0.54828 -3e-6,-2e-5 z M 78.207663,145.0315 c -2.59998,-1.53922 0.640587,-2.73999 1.585676,-1.36775 -0.377187,0.46032 -0.828218,1.77298 -1.585676,1.36775 z m -12.339379,-1.93328 c -1.938785,0.52424 -2.522283,-1.24034 -0.410782,-0.82738 0.918345,-0.17041 1.749895,1.22913 0.410782,0.82738 z m 9.79579,-0.27442 c -0.663664,-1.12671 -5.594823,-2.23382 -1.980277,-2.01036 0.677454,-0.0486 3.850349,1.89443 1.980277,2.01036 z m 4.837304,-0.68773 c -0.281984,-1.32424 2.339082,-2.34388 3.493587,-2.319 0.833746,0.97463 -3.040834,1.0419 -3.339526,2.3785 l -0.154054,-0.0597 z m -14.811126,-0.29259 c -1.942192,-0.16081 -2.48724,-2.27143 -0.07464,-0.94454 0.993007,0.13455 1.153985,1.57945 0.07464,0.94454 z m 21.318892,-0.53457 c 0.311026,-1.74687 4.21643,-0.27726 0.910827,0.01 -0.252902,-0.0932 -0.722899,0.29797 -0.910827,-0.01 z m -0.958996,-0.90961 c -0.09142,-1.54169 4.767637,-1.3394 1.392178,-0.25255 -0.460161,0.0395 -0.918927,0.49741 -1.392178,0.25255 z m -15.068552,-6.9515 c -0.491391,-1.31282 -0.07195,-3.78312 1.445842,-4.22316 2.369917,-1.22805 4.349776,4.7509 1.840306,1.38175 -1.031871,-1.66016 -2.397712,-0.43349 -2.725437,0.86039 -0.258738,0.53574 0.407063,2.32926 -0.560711,1.98102 z m 52.173524,-1.40074 c -1.67554,-0.86826 -1.51827,-3.61321 0.0743,-1.15108 0.70732,0.21728 0.84346,1.9832 -0.0743,1.15108 z m -37.741485,-1.7097 c 0.06131,-1.41922 2.04019,-4.79085 3.449589,-2.76695 1.35893,0.73134 1.431091,4.40799 0.196732,1.80986 -0.651535,-2.92832 -2.464112,-1.18615 -2.958755,0.68575 -4.48e-4,0.35386 -0.537311,0.52465 -0.687566,0.27134 z m 38.428275,-1.2384 c -1.02844,-1.79456 2.52274,0.84523 0.0313,0.0285 z m 2.12598,-1.14024 c -0.60261,-2.35293 1.93139,0.85133 0,0 z"
         id="path10147" /></g></g></svg>
