<?xml version="1.0" encoding="UTF-8" standalone="no"?>
<!-- Created with Inkscape (http://www.inkscape.org/) -->

<svg
   width="124.47757mm"
   height="76.802055mm"
   viewBox="0 0 124.47757 76.802055"
   version="1.1"
   id="svg1"
   xml:space="preserve"
   xmlns="http://www.w3.org/2000/svg"
   xmlns:svg="http://www.w3.org/2000/svg"><defs
     id="defs1" /><g
     id="g10157"
     transform="translate(-41.323751,-123.75526)"><path
       style="fill:#eaab30"
       d="m 109.49888,200.07067 c -1.5217,-2.45975 -2.37069,-5.67485 -3.80982,-8.24835 0.46892,-1.7152 4.00138,-3.76148 5.31714,-2.73296 2.26933,2.99639 2.67302,7.07835 5.66018,9.53451 1.41667,2.39252 -3.8911,1.40716 -5.34961,1.86001 -0.71557,0.0401 -1.33037,0.28294 -1.81789,-0.41321 z m -18.084431,-0.55891 c -2.838447,0.49811 0.05976,-1.7712 -0.614596,-3.25759 -0.208726,-1.73406 0.293875,-4.25464 2.553133,-3.6134 1.318926,0.13834 4.141569,-0.87859 3.771099,1.35935 -0.03642,1.72575 -0.07284,3.4515 -0.109256,5.17725 -0.185153,0.67831 -4.160124,0.42372 -5.60038,0.33439 z m 32.848771,-2.61417 c -1.65592,-2.10949 -2.42329,-4.6456 -4.65625,-6.35178 0.38266,-1.37681 -1.91477,-2.45831 -0.44302,-3.61764 1.77089,-2.31891 2.22004,-1.98442 5.08299,0.0783 l 7.55829,7.77826 c 0.53473,1.69732 -6.27998,3.89964 -7.54201,2.11283 z m 19.71069,-14.24099 c -7.33661,-1.66161 -5.97821,-9.7928 -13.88673,-11.78966 -1.79319,-0.69885 -1.45897,-4.31474 -2.10994,-6.24675 -0.2949,-3.30729 0.69621,-6.54023 2.37742,-9.36367 l 14.67978,-11.29024 c 3.81317,-1.40325 6.33548,3.37232 6.33548,3.37232 3.72875,-1.05734 8.36849,-4.76485 12.8302,-5.84044 1.96989,3.51047 1.68557,7.50723 1.39375,11.35051 -0.39709,2.93113 -2.39098,5.41184 -3.19934,8.16308 -0.26445,6.67768 -2.97033,13.39141 -8.32188,17.60171 -3.10208,1.77803 -6.20576,6.30129 -10.09874,4.04314 z m 15.86791,-29.51405 c 3.99849,-0.78481 1.07509,-7.02455 -1.8045,-4.48519 -1.46726,0.93764 -2.18254,3.45687 -0.30706,4.38892 0.45464,0.72418 1.47258,0.22155 2.11156,0.0963 z m -30.81686,18.91495 c 0.33799,-0.47458 0.33799,0.47458 0,0 z m -16.70998,-22.18149 c -2.72298,-0.50562 -2.95546,-3.99953 -2.26289,-4.84549 3.48732,-3.91424 4.57201,-4.9465 6.29849,-5.83099 2.64135,-1.08462 5.34994,-1.83395 8.22694,-1.74338 2.1076,-0.0914 3.22181,-2.57004 4.95703,-3.57314 2.59818,-1.45908 4.91425,-5.67814 8.12745,-5.07913 2.14772,4.06733 4.01338,8.52904 4.32754,13.15144 -4.11594,3.43176 -9.7433,2.6328 -14.55208,4.09733 l -5.05373,1.72551 c -2.4827,1.39815 -9.28746,2.14095 -10.06875,2.09785 z m 23.45242,-10.75746 c 1.57098,-0.53204 1.69377,-2.97233 0.67503,-4.07695 -1.33579,-1.39278 -3.07842,-0.53778 -3.97789,0.85956 -0.45091,1.6518 0.82667,3.83505 2.65814,3.40306 z"
       id="path10158" /><path
       style="fill:#000000;fill-opacity:1"
       d="m 88.404015,200.24352 c -9.437435,-1.38157 -18.033084,-6.37992 -24.446772,-13.35673 -2.514236,-2.59265 -5.102335,-5.22363 -6.970908,-8.32383 -0.430399,-3.23734 1.419282,-2.62249 1.110876,0.26312 1.947404,3.52691 5.202405,6.05165 8.285239,8.62428 7.68157,8.05828 18.854774,13.15143 30.110063,12.073 6.104847,0.23248 -3.390897,1.28105 -5.607423,0.88777 -0.827074,0.15024 -1.664244,-0.0627 -2.481075,-0.16761 z M 122.876,186.15471 c -1.61078,-2.57845 -10.3995,1.4194 -4.84378,-2.1656 1.88907,-1.52189 7.757,2.06249 5.81964,2.84989 l -0.64156,-0.42712 z m -41.237554,-0.17502 c -1.445194,-2.59006 3.14854,1.48473 0,0 z m 31.727954,-1.75127 c -5.89879,-2.4817 -1.36491,-8.31149 2.873,-9.65797 4.83232,-2.98275 11.11333,-5.66194 16.59225,-2.70184 2.87307,1.04399 7.09817,6.26827 5.10689,7.96983 -0.91137,-4.57181 -4.86734,-7.59492 -9.50556,-7.92117 -5.31369,-0.51765 -9.91419,2.58533 -14.37411,4.97425 -2.61618,0.62796 -3.53845,6.19897 -1.11189,5.32903 2.82635,-5.51915 2.14808,4.85165 0.41942,2.00787 z m -30.205645,-0.35156 c -1.346334,-3.1319 3.084413,2.08012 0,0 z m 2.368181,-1.49501 c -5.292116,-3.44496 3.246185,-1.07651 0.463818,0.53935 z M 68.524471,177.3213 c -2.057443,-1.11861 -4.629959,-7.29448 -6.825924,-4.12595 2.527375,0.63586 2.540855,3.7748 -0.162591,1.62142 -5.07966,-0.48283 3.433022,-6.2571 4.213523,-1.43613 3.54586,5.92108 10.284271,0.75134 15.281758,0.80254 2.596743,-0.397 8.958086,1.46453 8.184757,3.41481 -4.293595,-3.61592 -10.179758,-2.20778 -15.173419,-0.79288 -1.783964,0.35819 -3.762236,1.62936 -5.518104,0.51619 z M 54.420062,173.21831 C 45.667033,168.45676 40.169991,158.015 41.529604,148.08645 c 0.339701,-5.78821 3.876038,-12.6775 10.253853,-13.26 5.708435,0.64792 3.652646,7.4412 2.893966,11.17909 -0.581188,5.30561 1.741945,10.23422 4.429458,14.65407 -5.599498,-4.58071 -6.670449,-12.67422 -4.779435,-19.32049 2.095582,-6.73563 -7.124282,-6.40525 -8.956239,-1.23431 -6.931683,10.44078 -1.844032,25.58969 8.367728,31.91773 0.605355,0.33844 2.960364,2.17685 0.681127,1.19577 z m 43.319978,-2.60954 c -2.014676,-2.543 0.655998,-2.07637 1.784524,-0.8948 1.147176,-0.95763 4.973136,-5.63726 5.262666,-2.42527 -2.99901,-0.31472 -3.57344,5.96459 -7.04719,3.32007 z m -3.387485,-0.72192 c -4.582407,-4.92204 -2.09621,-14.31333 4.69408,-15.69145 2.599785,-1.12552 10.280745,1.09458 8.646865,3.14752 -3.14828,-3.43694 -9.296177,-2.74629 -12.444812,0.3724 -2.408065,2.40648 -3.38351,8.55537 -0.609028,10.00082 1.223723,-5.0783 2.160347,2.08634 1.655899,3.2221 -0.788464,0.13347 -1.538124,-0.42053 -1.943004,-1.05139 z m 51.539585,-1.48784 c -3.36633,-4.42624 2.826,-0.60212 1.80905,1.77376 -0.95372,0.0541 -1.51972,-1.03329 -1.80905,-1.77376 z m 3.02329,-1.94886 c -2.49792,-0.33432 -3.31907,-3.47975 -0.3344,-1.34805 2.63101,0.60376 5.42025,4.33649 0.3344,1.34805 z m -82.993598,0.18651 c -2.431162,-0.11654 -3.657118,-3.66584 -0.663475,-1.3747 2.084877,-0.18852 4.973061,3.79022 0.663475,1.3747 z m 4.630208,-0.92327 c 3.011725,-5.5482 3.208029,-11.94386 3.442301,-18.10607 0.187226,-7.11814 -3.069915,-13.74566 -3.384996,-20.77628 -0.218722,-2.7706 1.315526,-4.83857 0.857517,-0.86839 -0.08229,7.14023 3.626509,13.69897 3.65048,20.86184 0.449894,6.54639 -1.096598,13.0013 -3.608761,19.01539 l -0.486454,-2.9e-4 z m -9.101042,-2.11827 c -5.853759,-5.40235 4.396133,2.38519 0,0 z m 87.703712,-0.14852 c -5.84884,-1.86017 4.47027,-1.43439 1.60772,0.4339 l -0.89417,-0.20437 z m -58.328417,-9.42441 c 0.489278,-7.64608 -4.16437,-14.47322 -9.433095,-19.54591 -1.148656,-3.11349 -2.047741,-6.59099 -3.2966,-9.44189 3.645536,3.66862 2.914907,9.78459 7.840398,12.69403 3.900374,4.33873 6.206287,10.12254 5.687728,15.98967 0.450445,1.8969 -1.313269,4.25972 -0.798431,0.3041 z m 37.375297,0.83758 c -1.08377,-1.09815 -5.75842,-4.9814 -2.80353,-4.37132 1.28832,4.01121 2.96697,-4.8881 4.90113,-0.13005 0.48777,1.74781 -4.19348,2.7986 -0.57351,3.23243 4.94664,-1.7473 0.28052,2.80103 -1.52409,1.26894 z m 13.94138,-0.77538 c -0.85298,-1.78528 -8.69038,-1.26012 -4.2111,-2.88417 2.06241,-1.47787 8.25812,5.18908 4.2111,2.88417 z m -59.949264,-5.44242 c 0.04084,-3.67691 2.099224,2.61966 -0.01044,1.06299 z m 2.87676,0.42866 c -0.94159,-3.13899 2.153844,0.98682 0.05701,0.12513 z m 40.962814,-3.16966 c -3.25999,-4.56055 3.84431,-0.45885 0.85631,1.36839 -0.5617,-0.191 -0.71466,-0.88198 -0.85631,-1.36839 z m 20.07853,-0.0414 c -4.36718,-1.51335 2.04077,-9.15001 -0.42092,-3.40172 -1.32073,1.50898 4.06304,4.4293 0.42052,3.40172 z m -34.21863,-2.83606 c -5.38592,-3.1298 5.12137,-0.0256 2.07515,1.00593 -0.73965,-0.21732 -1.47651,-0.50058 -2.07515,-1.00593 z m 1.65611,-2.31655 c -4.16961,-4.25271 4.77946,1.12179 1.42751,1.28575 -0.56877,-0.31506 -1.02357,-0.78662 -1.42751,-1.28575 z m 2.1595,-0.5978 c -2.37486,-1.86917 -1.30504,-5.57602 0.3548,-1.54795 0.72774,0.65753 1.09864,3.4141 -0.3548,1.54795 z M 76.637456,128.02463 c -1.275093,-1.72533 -5.000926,-4.82455 -0.51562,-2.90087 0.643463,0.39875 2.715569,3.46876 0.51562,2.90087 z"
       id="path10157" /></g></svg>
