<?xml version="1.0" encoding="UTF-8" standalone="no"?>
<!-- Created with Inkscape (http://www.inkscape.org/) -->

<svg
   width="90.150291mm"
   height="52.62328mm"
   viewBox="0 0 90.150291 52.62328"
   version="1.1"
   id="svg1"
   xmlns:inkscape="http://www.inkscape.org/namespaces/inkscape"
   xmlns:sodipodi="http://sodipodi.sourceforge.net/DTD/sodipodi-0.dtd"
   xmlns="http://www.w3.org/2000/svg"
   xmlns:svg="http://www.w3.org/2000/svg">
  <sodipodi:namedview
     id="namedview1"
     pagecolor="#ffffff"
     bordercolor="#000000"
     borderopacity="0.25"
     inkscape:showpageshadow="2"
     inkscape:pageopacity="0.0"
     inkscape:pagecheckerboard="0"
     inkscape:deskcolor="#d1d1d1"
     inkscape:document-units="mm" />
  <defs
     id="defs1" />
  <g
     inkscape:label="Layer 1"
     inkscape:groupmode="layer"
     id="layer1"
     transform="translate(-53.777875,-30.881442)">
    <path
       style="fill:#fabcad;stroke-width:0.264583"
       id="path34"
       d="m 81.501421,55.875491 c -1.062847,-1.039868 -1.791991,-2.426079 -2.371765,-3.779584 -0.276209,-0.644818 -0.576641,-1.287647 -0.741582,-1.969468 -0.212889,-0.88002 -0.256873,-1.792497 -0.38531,-2.688746 0.05568,-1.054235 0.004,-2.119664 0.167031,-3.162702 0.703017,-4.497311 3.150873,-8.951772 7.250878,-11.188229 0.890166,-0.485566 1.903872,-0.698532 2.855809,-1.047798 0.918541,-0.04445 1.842058,-0.238678 2.755622,-0.133339 2.426793,0.279815 4.41198,1.739463 5.417627,3.947747 0.749588,1.646013 0.643591,2.622307 0.745548,4.376754 -0.05742,1.666568 -0.359958,3.299978 -0.907926,4.872333 -0.04886,0.140214 -0.311345,0.338148 -0.180027,0.407451 1.063738,0.561377 1.114033,-0.108792 1.473565,-0.769271 0.321561,-0.430829 0.608308,-0.889979 0.964681,-1.29249 2.413408,-2.725867 5.749158,-4.666427 9.253328,-5.616373 0.97369,-0.263957 1.9856,-0.358312 2.97839,-0.53747 2.21605,0.12309 5.05742,-0.323056 5.98025,2.35575 0.4877,1.415679 0.0845,3.241537 -0.34929,4.572473 -0.26922,0.826096 -0.69128,1.594295 -1.03692,2.391442 -0.83509,1.354624 -1.15973,2.127366 -2.27376,3.169811 -0.16174,0.151353 -0.67458,0.127839 -0.57833,0.327348 0.10311,0.213712 0.5137,0.07869 0.70973,-0.05501 0.26272,-0.179184 0.32871,-0.547365 0.53201,-0.791898 0.44535,-0.535702 0.93955,-1.02884 1.40933,-1.543259 0.69047,-0.592971 1.34296,-1.233281 2.07142,-1.77891 2.43004,-1.82014 5.14495,-3.205924 8.18234,-3.632676 0.84334,-0.118489 1.70859,-0.185142 2.55362,-0.07939 0.65927,0.0825 1.25951,0.423603 1.88926,0.635404 0.33633,0.402815 0.81564,0.720601 1.009,1.208445 0.4641,1.170892 -0.079,2.696739 -0.53844,3.714136 -0.72198,1.598835 -1.77878,2.992446 -2.90513,4.319984 -0.53557,0.63123 -1.12802,1.211906 -1.69203,1.81786 -1.24457,1.157012 -1.35033,1.321049 -2.5527,2.241097 -0.14051,0.107514 -0.51406,0.1338 -0.44121,0.295024 0.54598,1.208344 1.10472,0.372957 1.67229,0.04342 0.49175,-0.285512 1.00258,-0.536824 1.50387,-0.805236 2.20267,-1.0966 4.58093,-1.804498 7.05276,-1.911262 1.49111,-0.06441 3.24464,0.07552 4.63126,0.725326 0.54258,0.25427 0.96669,0.708305 1.45004,1.062458 0.20337,0.465349 0.55182,0.891553 0.61012,1.396042 0.13327,1.153382 -0.62834,2.6225 -1.25624,3.467677 -1.0839,1.45896 -2.54109,2.582217 -4.05049,3.558683 -0.81149,0.524962 -1.68417,0.948655 -2.52625,1.422982 -1.84408,0.829101 -2.40592,1.161849 -4.22816,1.719011 -0.37004,0.113138 -0.75512,0.169569 -1.13116,0.260763 -0.0754,0.01828 0.16057,-0.07878 0.2288,-0.04193 0.21957,0.118597 0.32738,0.477404 0.57694,0.477121 0.51272,-5.3e-4 0.97436,-0.319614 1.46154,-0.479423 2.40432,-0.607293 4.89596,-0.977656 7.38276,-0.767302 1.32296,0.111906 2.7873,0.356071 3.88234,1.203349 0.37241,0.288157 0.57705,0.744259 0.86558,1.116391 -0.20848,0.502002 -0.31651,1.058759 -0.62545,1.506005 -1.58227,2.290628 -3.1775,3.198437 -5.77562,4.505071 -3.24686,1.632892 -7.5927,3.164853 -11.12476,3.907359 -2.0984,0.441121 -4.2485,0.584547 -6.37275,0.876818 -2.03824,0.01799 -4.07937,0.163897 -6.11472,0.05395 -3.21674,-0.17377 -6.4468,-0.722624 -9.46472,-1.883619 -1.753666,-0.674634 -3.406846,-1.64053 -4.675269,-3.043867 -0.342813,-0.379272 -0.536634,-0.870341 -0.80495,-1.305512 -1.501262,0.188047 0.305914,-1.133914 -0.09602,-1.290574 -0.124714,-0.04861 -0.06525,0.326242 -0.196993,0.349914 -0.270785,0.04865 -0.553294,-0.27387 -0.807799,-0.169381 -0.260247,0.106847 -0.288478,0.487318 -0.476438,0.696637 -0.321723,0.358289 -0.696579,0.665044 -1.044869,0.997567 -0.573524,0.385268 -1.116703,0.820094 -1.720577,1.1558 -3.362915,1.869522 -7.395845,2.943577 -11.252819,2.433008 -0.970222,-0.128434 -1.899822,-0.471146 -2.849734,-0.70672 -1.842829,-1.044483 -2.905649,-1.358766 -4.141492,-3.150606 -1.367938,-1.983361 -1.624406,-4.680873 -1.452078,-7.006159 0.0498,-0.671946 0.199038,-1.332801 0.298556,-1.999202 0.0027,-0.01172 0.513143,-2.093042 0.495739,-2.428827 -0.01191,-0.229928 -0.01638,-0.575477 -0.234302,-0.649756 -1.064945,-0.362979 -2.474989,0.315418 -3.432492,0.527931 -0.747408,0.165886 -1.50871,0.261424 -2.263063,0.392136 -0.839862,-0.0045 -1.685629,0.08595 -2.519588,-0.01355 -2.692691,-0.321302 -5.157795,-1.569535 -6.878158,-3.695417 -1.593046,-1.968556 -1.592935,-2.818508 -2.316591,-5.205492 -0.08284,-0.992748 -0.2788,-1.982504 -0.248508,-2.978242 0.112036,-3.68263 1.901304,-7.716097 4.724662,-10.12158 0.623324,-0.531072 1.365608,-0.9041 2.048412,-1.356151 0.738384,-0.256955 1.45346,-0.594611 2.21515,-0.770869 1.490319,-0.344868 2.79763,-0.322524 4.287253,-0.04302 1.15548,0.216802 2.387105,0.689708 3.438226,1.213059 0.465222,0.231632 0.900888,0.518401 1.351333,0.777603 0.934693,0.581882 1.811152,1.24515 2.631437,1.977929 0.363353,0.324591 0.707742,0.665795 1.081585,0.978355 0.218612,0.136012 0.567997,0.417537 0.839679,0.04236 0.154694,-0.213617 0.0095,-0.52741 0.01429,-0.791115 -0.355566,-0.612023 -1.2211,-0.10918 -0.865537,0.502846 v 0 c 0.06661,-0.157252 0.05735,-0.377587 0.199821,-0.471757 0.250293,-0.165439 0.744535,0.09113 0.452274,-0.05158 -0.370041,-0.306628 -0.707721,-0.646205 -1.06666,-0.965676 -0.86994,-0.77429 -1.798307,-1.476201 -2.789452,-2.090024 -0.484571,-0.27623 -0.953265,-0.58239 -1.453711,-0.828693 -1.145529,-0.563787 -2.477823,-1.066186 -3.736464,-1.289619 -1.632741,-0.289846 -3.094109,-0.300289 -4.71927,0.09612 -0.839369,0.20474 -1.624727,0.588304 -2.437087,0.882454 -0.741614,0.50223 -1.548064,0.920002 -2.224842,1.506683 -3.017906,2.616163 -4.897559,6.921744 -4.988306,10.889676 -0.02439,1.066406 0.192929,2.124628 0.289394,3.186943 0.81689,2.594999 0.82378,3.514313 2.591778,5.643304 1.908768,2.298506 4.614074,3.631705 7.55695,3.962894 0.89236,0.100428 1.795987,-7.93e-4 2.693977,-0.0013 0.987433,-0.173402 3.11853,-0.464851 4.139562,-0.917977 0.218514,-0.09698 0.3175,-0.360926 0.504926,-0.509331 0.03285,-0.02601 0.126,-0.03157 0.125288,0.01032 -0.0075,0.43897 -0.476044,2.346981 -0.498075,2.443946 -0.103056,0.712991 -0.260832,1.420196 -0.309166,2.138973 -0.177541,2.640209 0.156276,5.494555 1.743609,7.718002 1.400067,1.961134 2.560868,2.287582 4.61386,3.416953 1.021305,0.244981 2.021967,0.602951 3.063915,0.734942 4.040277,0.511799 8.324498,-0.622298 11.836976,-2.604892 0.652389,-0.368239 1.237737,-0.844307 1.856603,-1.26646 0.1427,-0.140576 1.752314,-1.54995 1.774528,-2.098469 0.01606,-0.396465 -0.179903,-0.853604 -0.508219,-1.076428 -0.169532,-0.115059 -0.349719,0.251561 -0.428472,0.440709 -0.25931,0.6228 0.09729,1.416523 0.242366,1.969045 0.332214,0.509008 0.583883,1.080836 0.996644,1.527027 1.37742,1.488987 3.168626,2.529345 5.049548,3.246567 3.10808,1.185158 6.44415,1.74888 9.75288,1.923142 2.07805,0.109448 4.16164,-0.04223 6.24246,-0.06335 2.17119,-0.302252 4.36889,-0.45307 6.51356,-0.906756 3.55428,-0.751882 8.11236,-2.348481 11.37299,-4.017481 2.24107,-1.147117 4.97961,-2.681578 6.21576,-5.095727 0.37119,-0.724913 0.28677,-1.603404 0.43015,-2.405104 -0.39987,-0.459553 -0.70893,-1.017667 -1.19961,-1.378652 -1.22735,-0.90293 -2.85133,-1.184759 -4.3141,-1.303808 -2.59735,-0.211384 -5.19823,0.177959 -7.70729,0.819547 -1.00352,0.34508 -2.2255,0.341471 -2.29001,1.773399 -0.009,0.200332 0.36908,0.205176 0.56932,0.194405 0.42291,-0.02275 0.83185,-0.167029 1.23664,-0.29156 1.89274,-0.582293 2.47583,-0.928352 4.38773,-1.791547 0.87694,-0.496998 1.78713,-0.939435 2.63082,-1.490998 1.60673,-1.050409 3.21869,-2.306429 4.34052,-3.898313 0.84763,-1.20279 1.56687,-2.833185 1.26943,-4.369244 -0.12706,-0.656125 -0.62123,-1.183487 -0.93185,-1.77523 -0.58595,-0.40309 -1.10982,-0.916231 -1.75787,-1.209265 -1.50985,-0.682731 -3.41542,-0.831006 -5.03261,-0.754049 -2.59178,0.123333 -5.08592,0.870934 -7.39577,2.021869 -0.52862,0.284821 -1.06819,0.550198 -1.58585,0.854466 -0.52612,0.309232 -1.71216,0.758884 -0.55731,1.619343 0.16485,0.12283 0.34736,-0.220983 0.51045,-0.346139 1.24918,-0.958606 1.37209,-1.14079 2.65743,-2.338747 0.58341,-0.628809 1.19731,-1.23064 1.75023,-1.886429 1.15072,-1.364829 2.37479,-2.980229 3.07258,-4.645644 0.61572,-1.469546 1.08611,-3.125039 0.31994,-4.674939 -0.30635,-0.619709 -0.96292,-0.992134 -1.44438,-1.488201 -0.74315,-0.227468 -1.45739,-0.593265 -2.22943,-0.682403 -0.91278,-0.105386 -1.84535,-0.0265 -2.75444,0.106976 -3.18996,0.46836 -6.04935,1.92541 -8.59967,3.847029 -0.76049,0.573013 -1.4412,1.244864 -2.16181,1.867299 -0.19521,0.219295 -3.74966,3.517202 -1.38457,3.91383 0.31687,0.05314 0.57639,-0.302003 0.80975,-0.522851 1.18637,-1.122767 1.56017,-1.992765 2.43938,-3.43318 0.36559,-0.860287 0.82146,-1.687581 1.09676,-2.580867 0.50793,-1.648103 0.89858,-3.700399 0.16321,-5.387822 -1.28063,-2.938571 -4.32855,-2.670604 -6.95397,-2.730378 -1.0471,0.193916 -2.11452,0.299384 -3.14132,0.581742 -3.68632,1.013701 -7.19107,3.073916 -9.714562,5.960787 -0.386371,0.442008 -0.696103,0.945544 -1.044154,1.418318 -0.310904,0.595757 -1.159253,1.433628 0.328324,1.63812 0.182301,0.02506 0.157226,-0.33355 0.217265,-0.507495 0.58338,-1.690137 0.901658,-3.444576 0.951484,-5.234726 -0.135506,-1.96425 -0.02363,-3.035503 -0.913479,-4.871024 -1.215692,-2.50762 -3.519286,-4.114387 -6.305232,-4.389136 -1.013812,-0.09998 -2.033299,0.130173 -3.049948,0.195258 -1.034285,0.394163 -2.136439,0.642913 -3.102856,1.182491 -4.333536,2.419541 -6.932451,7.148973 -7.652699,11.94126 -0.166574,1.108331 -0.105024,2.239097 -0.157536,3.358647 0.146394,0.965446 0.20583,1.948148 0.439179,2.896341 0.175337,0.712467 0.489445,1.384607 0.780145,2.058289 0.568675,1.317863 1.289855,2.682835 2.263815,3.75653 0.147436,0.162536 0.327184,0.292534 0.490776,0.438801 0.606946,0.364167 1.121955,-0.494183 0.515008,-0.858351 z" />
    <path
       style="fill:#fabcad;stroke-width:0.264583"
       id="path35"
       d="m 123.37689,55.603092 c -0.92546,1.092348 -2.20055,1.781929 -3.46488,2.403866 -1.49403,0.651272 -3.07978,1.103141 -4.71711,1.101156 -0.11237,-0.0091 -0.22474,-0.01815 -0.3371,-0.02722 -0.70577,-0.0537 -0.78172,0.944417 -0.0759,0.998114 v 0 c 0.13873,0.01003 0.27747,0.02005 0.41621,0.0301 1.79046,-0.01225 3.52486,-0.478144 5.15725,-1.204664 0.3375,-0.167343 0.68185,-0.321505 1.01249,-0.502025 1.04457,-0.570318 2.03748,-1.287587 2.80988,-2.198727 0.42469,-0.566251 -0.37611,-1.16685 -0.8008,-0.600599 z" />
    <path
       style="fill:#fabcad;stroke-width:0.264583"
       id="path36"
       d="m 95.278505,73.569668 c 0.54143,-0.936625 0.879594,-1.966863 1.157158,-3.006887 0.221797,-0.803261 0.409551,-1.61458 0.416981,-2.450544 -0.05905,-0.341839 0.0013,-0.166664 -0.213157,-0.513257 -0.501695,-0.499303 -1.207817,0.210198 -0.706122,0.709501 v 0 c -0.032,-0.06763 -0.06399,-0.13526 -0.09599,-0.20289 0.0048,2.01e-4 0.0095,5.29e-4 0.01429,5.29e-4 -0.0019,0.751057 -0.19036,1.477452 -0.383395,2.199388 -0.254389,0.960777 -0.564504,1.913279 -1.064794,2.777959 -0.343747,0.618741 0.531286,1.104868 0.87503,0.486129 z" />
    <path
       style="fill:#fabcad;stroke-width:0.264583"
       id="path37"
       d="m 71.383013,62.206716 c -0.0387,-0.07456 -0.047,-0.08604 -0.0775,-0.161198 -0.0048,-0.01177 -0.01251,-0.04884 -0.01217,-0.03614 0.0026,0.09683 0.07154,0.208579 0.01905,0.289988 -0.263922,0.409229 -0.635479,0.309327 -0.382826,0.367382 0.803111,0.14405 1.542246,-0.242424 2.236264,-0.59386 1.044802,-0.564533 1.993654,-1.284068 2.892811,-2.055275 0.357362,-0.311809 0.189204,-0.167955 0.503423,-0.432795 0.541102,-0.4563 -0.104204,-1.221534 -0.645306,-0.765233 v 0 c -0.324998,0.274196 -0.154649,0.12828 -0.510286,0.438634 -0.837774,0.720482 -1.722265,1.392695 -2.694855,1.922653 -0.402368,0.206187 -0.836851,0.464143 -1.296731,0.517488 -0.129577,0.01503 -0.206174,-0.0035 -0.333261,-0.02101 -0.318471,-0.04179 -0.399021,-0.09119 -0.726387,0.328983 -0.150601,0.193302 0.09548,0.562806 0.17893,0.730893 0.375139,0.600223 1.223986,0.06969 0.848844,-0.530529 z" />
    <path
       style="fill:#fabcad;stroke-width:0.264583"
       id="path38"
       d="m 75.417922,46.120333 c -0.223101,0.809775 -0.348723,1.639842 -0.441081,2.473179 -0.09804,1.257366 -0.125264,2.546779 0.118578,3.791482 0.06211,0.317023 0.153697,0.627552 0.230545,0.941326 0.317503,1.085324 0.745575,2.136021 1.251162,3.146796 0.132704,0.265305 0.276182,0.525089 0.413665,0.787953 0.111734,0.226615 0.06225,0.126894 0.148132,0.299325 0.315585,0.633566 1.211583,0.187262 0.895996,-0.446304 v 0 c -0.08781,-0.176281 -0.03534,-0.07068 -0.157128,-0.316952 -0.132279,-0.252902 -0.270611,-0.502682 -0.398542,-0.757812 -0.47588,-0.949037 -0.879851,-1.935284 -1.181661,-2.953734 -0.07036,-0.28039 -0.154474,-0.557686 -0.211087,-0.841174 -0.232019,-1.161796 -0.204304,-2.367142 -0.114673,-3.541361 0.08453,-0.773276 0.200781,-1.543073 0.404878,-2.295091 0.203388,-0.677963 -0.755396,-0.965597 -0.958784,-0.287633 z" />
    <path
       style="fill:#fabcad;stroke-width:0.264583"
       id="path39"
       d="m 73.703031,46.455142 c -0.06907,0.04461 -0.144719,0.08041 -0.207219,0.133839 -0.624494,0.533911 -0.809011,1.37713 -0.981662,2.139609 -0.207008,1.151429 -0.166069,2.323835 -0.01336,3.478056 0.03836,0.302813 0.09782,0.597554 0.190677,0.887561 0.228317,0.66998 1.175811,0.347088 0.947492,-0.32289 v 0 c -0.08668,-0.222925 -0.0994,-0.464232 -0.145992,-0.697275 -0.14016,-1.037095 -0.179382,-2.091415 -0.0019,-3.127454 0.09059,-0.413134 0.176556,-0.818105 0.361363,-1.201735 0.01635,-0.03392 0.142843,-0.265941 0.19985,-0.323839 0.02831,-0.02875 0.06557,-0.04703 0.09836,-0.07055 0.633087,-0.316542 0.185428,-1.211865 -0.447662,-0.89532 z" />
    <path
       style="fill:#fabcad;stroke-width:0.264583"
       id="path40"
       d="m 70.834971,46.718256 c -0.185602,0.798828 -0.233677,1.618909 -0.255772,2.43589 -0.01453,0.453427 0.02767,0.898718 0.149206,1.334801 0.200613,0.678789 1.160566,0.395081 0.959953,-0.28371 v 0 c -0.108563,-0.32997 -0.106947,-0.680077 -0.108513,-1.024435 0.01979,-0.755451 0.06158,-1.514189 0.233907,-2.252808 0.148307,-0.692102 -0.830474,-0.90184 -0.978781,-0.209738 z" />
    <path
       style="fill:#fabcad;stroke-width:0.264583"
       id="path41"
       d="m 116.41152,62.537352 c 0.83318,-0.03739 1.65511,-0.197813 2.47451,-0.34336 0.92122,-0.158107 1.84136,-0.338495 2.71964,-0.663853 0.10874,-0.05521 0.2223,-0.100745 0.33635,-0.143928 0.6842,-0.18129 0.42782,-1.1489 -0.25638,-0.96761 v 0 c -0.14887,0.04535 -0.29196,0.101838 -0.43045,0.173903 -0.81925,0.30962 -1.68485,0.462478 -2.54425,0.615918 -0.76183,0.135358 -1.52543,0.2848 -2.29942,0.327932 -0.70781,0 -0.70781,1.000998 0,1.000998 z" />
    <path
       style="fill:#fabcad;stroke-width:0.264583"
       id="path42"
       d="m 118.25993,64.443398 c 0.46798,0.04223 0.93388,0.102277 1.40515,0.07987 0.13804,-0.0066 0.27542,-0.0232 0.41313,-0.03481 0.49931,-0.05715 0.98949,-0.172159 1.47927,-0.28172 0.69069,-0.154737 0.47186,-1.131525 -0.21883,-0.976789 v 0 c -0.44653,0.1002 -0.89342,0.205486 -1.34811,0.261355 -0.11184,0.01035 -0.22336,0.02506 -0.33552,0.03101 -0.43463,0.02313 -0.86381,-0.03766 -1.29549,-0.07495 -0.7043,-0.07043 -0.8039,0.925602 -0.0996,0.996032 z" />
    <path
       style="fill:#fabcad;stroke-width:0.264583"
       id="path43"
       d="m 98.20626,68.921671 c 0.0034,0.645076 -0.0881,1.294078 -0.250415,1.918275 -0.04478,0.172188 -0.100968,0.341201 -0.151453,0.511804 -0.229735,0.682477 -0.517147,1.35821 -0.963025,1.928725 -0.429149,0.562878 0.366879,1.169787 0.796031,0.60691 v 0 c 0.07421,-0.09905 0.154252,-0.193998 0.222641,-0.297157 0.398304,-0.600786 0.675482,-1.276794 0.904828,-1.956535 0.05614,-0.192638 0.118594,-0.383548 0.168431,-0.577914 0.178215,-0.695055 0.27682,-1.416523 0.273963,-2.134108 0,-0.707813 -1.001001,-0.707813 -1.001001,0 z" />
    <path
       style="fill:#fabcad;stroke-width:0.264583"
       id="path44"
       d="m 96.246245,45.460552 c -0.463145,0.665456 -1.093621,1.190164 -1.708004,1.709626 -0.466286,0.388287 -0.956025,0.746114 -1.458971,1.084884 -0.587042,0.395454 -0.02778,1.225653 0.559258,0.830199 v 0 c 0.533204,-0.359227 1.052102,-0.739132 1.546317,-1.150948 0.692849,-0.586737 1.398323,-1.184373 1.910244,-1.943235 0.375142,-0.600223 -0.473705,-1.130752 -0.848844,-0.530526 z" />
    <path
       style="fill:#fabcad;stroke-width:0.264583"
       id="path45"
       d="m 97.349441,47.558843 c -0.441116,0.55979 -0.953016,1.060294 -1.464532,1.555049 -0.166415,0.165023 -0.347782,0.31215 -0.537914,0.448336 -0.573053,0.415465 0.0145,1.225884 0.587558,0.810419 v 0 c 0.226856,-0.165904 0.446547,-0.340797 0.646382,-0.539345 0.567367,-0.549069 1.137677,-1.104532 1.613011,-1.737048 0.380008,-0.597154 -0.464497,-1.134568 -0.844505,-0.537411 z" />
    <path
       style="fill:#fabcad;stroke-width:0.264583"
       id="path46"
       d="m 69.536246,69.161868 c -0.765742,1.264409 -0.510181,2.78805 -0.303898,4.169704 0.600652,2.141924 1.658183,4.131159 3.284934,5.675191 1.114666,1.057989 1.571863,1.225012 2.878736,1.987803 1.873186,0.901367 3.674996,1.286431 5.748244,1.191372 0.81823,-0.03752 1.309095,-0.138444 2.096336,-0.266925 0.719437,-0.134649 1.422178,-0.322366 2.093969,-0.612341 0.648938,-0.282628 0.249242,-1.200367 -0.399696,-0.917739 v 0 c -0.593955,0.261598 -1.220055,0.417965 -1.856539,0.542319 -0.720193,0.119139 -1.190953,0.215826 -1.936371,0.253687 -1.891409,0.09608 -3.529772,-0.241905 -5.244137,-1.05651 -1.191485,-0.684686 -1.61934,-0.840264 -2.63747,-1.792372 -1.494372,-1.397466 -2.466441,-3.208031 -3.038248,-5.154078 -0.172143,-1.124069 -0.443375,-2.413788 0.147021,-3.464854 0.392626,-0.588938 -0.440256,-1.144193 -0.832881,-0.555257 z" />
    <path
       style="fill:#fabcad;stroke-width:0.264583"
       id="path47"
       d="m 129.76695,81.222037 c 1.34765,-0.244557 2.6785,-0.558343 3.98222,-0.981644 0.45886,-0.148987 0.91161,-0.31618 1.36741,-0.474271 1.85814,-0.69297 3.65485,-1.546955 5.35228,-2.573234 0.76027,-0.459666 1.04266,-0.670563 1.74239,-1.156849 0.49875,-0.390181 1.00451,-0.77221 1.50122,-1.164825 0.55376,-0.440846 -0.0697,-1.223986 -0.62345,-0.783138 v 0 c -0.47624,0.383329 -0.97216,0.743839 -1.44935,1.126197 -0.66893,0.465677 -0.94407,0.671216 -1.67062,1.111324 -1.64274,0.995092 -3.38208,1.822683 -5.18078,2.494896 -0.44232,0.153728 -0.88168,0.31628 -1.32697,0.461185 -1.28306,0.417531 -2.59308,0.723654 -3.91943,0.964993 -0.68969,0.159161 -0.4646,1.134526 0.22508,0.975366 z" />
    <path
       style="fill:#fabcad;stroke-width:0.264583"
       id="path48"
       d="m 55.672259,41.880236 c 0.278228,-0.947644 0.926298,-1.698926 1.557089,-2.432526 0.267134,-0.22624 0.519239,-0.471522 0.801396,-0.678722 1.543362,-1.133364 3.323013,-1.870964 5.105911,-2.529721 0.322813,-0.09206 0.650877,-0.266687 0.995929,-0.265816 0.706276,-0.04662 0.640349,-1.045443 -0.06593,-0.998826 v 0 c -0.443653,0.04129 -0.861806,0.158088 -1.277133,0.325757 -1.892041,0.699982 -3.782695,1.489623 -5.409991,2.708392 -0.321077,0.240472 -0.606734,0.52492 -0.910103,0.787381 -0.713176,0.833983 -1.430509,1.694516 -1.746803,2.767537 -0.223829,0.671491 0.725802,0.988036 0.949632,0.316544 z" />
    <path
       style="fill:#fabcad;stroke-width:0.264583"
       id="path49"
       d="m 56.284402,37.294388 c 0.419674,-0.773668 1.165233,-1.259184 1.918237,-1.667785 0.556606,-0.219138 1.176515,-0.572773 1.790155,-0.579879 0.706458,-0.04378 0.644551,-1.042861 -0.06191,-0.999085 v 0 c -0.106365,0.0091 -0.213847,0.0094 -0.319101,0.02724 -0.660598,0.111945 -1.284772,0.405415 -1.890961,0.674309 -0.18184,0.100848 -0.369028,0.192614 -0.545526,0.302548 -0.724471,0.451247 -1.378871,1.036865 -1.786215,1.794986 -0.316545,0.633088 0.578778,1.080749 0.895321,0.447662 z" />
    <path
       style="fill:#fabcad;stroke-width:0.264583"
       id="path50"
       d="m 57.668564,42.884259 c 1.135999,0.502462 2.36393,0.836115 3.611012,0.868005 0.333301,0.0085 0.666541,-0.01921 0.99981,-0.02883 0.346454,-0.05173 0.699188,-0.07159 1.039363,-0.155186 1.593615,-0.391601 3.048455,-1.29899 4.222731,-2.429835 0.237369,-0.228587 0.445461,-0.485743 0.66819,-0.728618 0.368781,-0.496847 1.281824,-1.588296 1.122807,-2.294736 -0.02543,-0.112996 -0.09547,-0.21105 -0.143214,-0.316577 -0.409977,-0.57699 -1.225965,0.0028 -0.815988,0.579795 v 0 c -0.01241,-0.05579 -0.0344,-0.110289 -0.0372,-0.167373 -5.29e-4,-0.01066 0.02862,-0.02588 0.02824,-0.01519 -0.01625,0.45543 -0.659657,1.203632 -0.894739,1.540105 -0.194712,0.215519 -0.376073,0.443897 -0.584136,0.646555 -1.028862,1.002146 -2.315049,1.83796 -3.717891,2.196367 -0.300741,0.07684 -0.613315,0.09614 -0.919972,0.144208 -0.297008,0.01043 -0.593881,0.03645 -0.89103,0.03129 -1.108675,-0.01924 -2.198798,-0.318159 -3.213406,-0.751322 -0.623208,-0.335573 -1.097783,0.545778 -0.474573,0.881351 z" />
    <path
       style="fill:#fabcad;stroke-width:0.264583"
       id="path51"
       d="m 126.97034,55.406856 c 0.5685,0.40178 1.18255,0.74654 1.83763,0.986525 0.19254,0.07054 0.38995,0.127003 0.58492,0.190505 1.25942,0.333746 2.55028,0.526812 3.8483,0.619295 0.78922,0.02148 1.60899,0.02003 2.36707,-0.235339 0.11503,-0.03875 0.22474,-0.09183 0.3371,-0.137753 0.44315,-0.192675 0.81937,-0.497692 1.1937,-0.79638 0.19847,-0.170408 0.35573,-0.382535 0.51284,-0.590092 0.12351,-0.228632 0.0723,-0.09591 0.12865,-0.406972 -0.008,-0.707773 -1.00857,-0.696984 -1.00095,0.0108 v 0 c 0.0497,-0.188642 0.005,-0.13354 0.0696,-0.201932 -0.10239,0.141822 -0.21193,0.282268 -0.3348,0.405992 -0.30262,0.241821 -0.60299,0.495252 -0.95876,0.656564 -0.70223,0.312409 -1.48772,0.321487 -2.24398,0.296608 -1.2178,-0.08517 -2.42815,-0.267327 -3.61125,-0.57336 -0.75079,-0.23999 -1.47742,-0.541996 -2.11555,-1.014592 -0.55872,-0.434557 -1.17327,0.355584 -0.61456,0.790141 z" />
    <path
       style="fill:#fabcad;stroke-width:0.264583"
       id="path52"
       d="m 70.775141,79.366154 c 0.582832,0.810564 1.240327,1.583563 1.994339,2.241754 0.426599,0.372385 0.828953,0.639603 1.288108,0.963326 0.770316,0.51085 1.402345,0.87488 2.330818,0.933046 0.707388,0.02455 0.742119,-0.975839 0.03473,-1.000398 v 0 c -0.66884,0.01476 -1.241922,-0.420216 -1.789445,-0.751247 -0.377069,-0.264856 -0.821368,-0.563026 -1.169289,-0.865206 -0.701355,-0.60914 -1.313715,-1.32547 -1.856375,-2.07653 -0.392626,-0.588938 -1.225508,-0.03368 -0.832886,0.555255 z" />
  </g>
</svg>
