<?xml version="1.0" encoding="UTF-8" standalone="no"?>
<!-- Created with Inkscape (http://www.inkscape.org/) -->

<svg
   width="22.620565mm"
   height="31.642567mm"
   viewBox="0 0 22.620565 31.642567"
   version="1.1"
   id="svg1"
   inkscape:export-filename="cloud.svg"
   inkscape:export-xdpi="96"
   inkscape:export-ydpi="96"
   xmlns:inkscape="http://www.inkscape.org/namespaces/inkscape"
   xmlns:sodipodi="http://sodipodi.sourceforge.net/DTD/sodipodi-0.dtd"
   xmlns="http://www.w3.org/2000/svg"
   xmlns:svg="http://www.w3.org/2000/svg">
  <sodipodi:namedview
     id="namedview1"
     pagecolor="#ffffff"
     bordercolor="#000000"
     borderopacity="0.25"
     inkscape:showpageshadow="2"
     inkscape:pageopacity="0.0"
     inkscape:pagecheckerboard="0"
     inkscape:deskcolor="#d1d1d1"
     inkscape:document-units="mm" />
  <defs
     id="defs1" />
  <g
     inkscape:label="Layer 1"
     inkscape:groupmode="layer"
     id="layer1"
     transform="translate(-1.1226093,-55.598784)">
    <path
       style="fill:#fabcad;stroke-width:0.264583"
       id="path5"
       d="m 22.720397,84.71868 c 0.0038,-0.05202 0.01772,-0.104278 0.01151,-0.156072 -0.01186,-0.09886 -0.01725,-0.204243 -0.0652,-0.29151 -0.139963,-0.25477 -0.33246,-0.392462 -0.616778,-0.443066 -0.349889,-0.06228 -0.575358,0.03058 -0.91239,0.110818 -0.168802,0.06858 -0.34356,0.124007 -0.506405,0.205727 -0.530124,0.266027 -1.058942,0.666197 -1.384827,1.170379 -0.100676,0.155755 -0.194786,0.322265 -0.239242,0.502319 -0.04521,0.183115 -0.01624,0.376878 -0.02436,0.565317 0.110282,0.182694 0.171249,0.406421 0.330846,0.548084 0.164237,0.145783 0.384014,0.227161 0.598024,0.276413 0.216915,0.04992 0.446058,0.03648 0.66759,0.01484 0.457293,-0.04464 0.89833,-0.212429 1.300019,-0.426683 0.196245,-0.104672 0.373989,-0.240842 0.560983,-0.361265 0.149558,-0.13994 0.316087,-0.263707 0.448675,-0.419819 0.318286,-0.374764 0.603679,-0.965774 0.335776,-1.456788 -0.231418,-0.42414 -0.46114,-0.422169 -0.857852,-0.549802 -0.51366,-0.01881 -0.268061,-0.03444 -0.73741,0.03596 -0.697508,0.120346 -0.527313,1.106771 0.170195,0.986425 v 0 c 0.219532,-0.04801 0.108727,-0.0316 0.332406,-0.04931 0.03666,-0.0033 0.08012,0.01164 0.109982,-0.0099 0.02701,-0.01945 0.01124,-0.06963 0.03404,-0.09387 0.01653,-0.01757 0.06146,-0.03955 0.07033,-0.01712 0.02078,0.05261 0.0085,0.115993 -0.01019,0.169384 -0.09735,0.278304 -0.231593,0.354033 -0.445544,0.568187 -0.356226,0.240099 -0.481998,0.355571 -0.889394,0.506865 -0.143621,0.05334 -0.294256,0.08691 -0.444484,0.116962 -0.107214,0.02146 -0.217405,0.02363 -0.325904,0.03716 -0.052,0.0065 -0.105313,0.0079 -0.155528,0.02286 -0.03386,0.01011 -0.06188,0.03413 -0.09282,0.05119 -0.08902,-0.173067 -0.105499,-0.136555 0.04273,-0.388681 0.224184,-0.381315 0.606922,-0.671701 0.991122,-0.875226 0.119561,-0.06334 0.248475,-0.107172 0.372712,-0.160758 0.09223,-0.02732 0.184306,-0.05515 0.276682,-0.08196 0.03932,-0.0114 0.08416,-0.01024 0.118387,-0.0327 0.01198,-0.0079 0.0011,-0.02923 -0.0033,-0.04286 -0.01532,-0.04739 -0.04514,-0.09002 -0.05541,-0.138755 -0.005,-0.02368 0.004,-0.141534 0.01019,-0.07185 -0.126617,0.696397 0.858236,0.875459 0.984854,0.179062 z" />
    <path
       style="fill:#fabcad;stroke-width:0.264583"
       id="path6"
       d="m 21.334451,80.065329 c -0.02944,-0.05992 -0.04835,-0.12627 -0.08831,-0.179745 -0.06684,-0.08945 -0.137476,-0.180441 -0.228822,-0.244666 -0.432473,-0.304067 -1.003681,-0.25636 -1.484251,-0.115482 -0.254455,0.07459 -0.494721,0.191047 -0.742081,0.28657 -0.262401,0.137155 -0.537938,0.251674 -0.787202,0.411464 -0.541933,0.347403 -1.099459,0.824899 -1.515996,1.318551 -0.261244,0.309608 -0.677587,0.891688 -0.699752,1.344076 -0.01137,0.232015 0.10269,0.453093 0.154035,0.679643 0.233033,0.149119 0.434318,0.367165 0.699101,0.447362 0.461358,0.139737 1.339433,-0.04127 1.766729,-0.155241 0.595543,-0.15884 1.38258,-0.466516 1.924577,-0.756825 0.315481,-0.168981 0.60782,-0.378005 0.91173,-0.567007 0.658338,-0.524452 1.439733,-1.083477 1.68508,-1.944913 0.06062,-0.212825 0.09873,-0.446791 0.04782,-0.662141 -0.05583,-0.236138 -0.18018,-0.467087 -0.354677,-0.635701 -0.178351,-0.172333 -0.439705,-0.22955 -0.659557,-0.344326 -0.942976,-0.125436 -0.47366,-0.108275 -1.407779,-0.0559 -0.706252,0.047 -0.639779,1.045792 0.06647,0.998789 v 0 c 0.669719,-0.05388 0.349153,-0.05235 0.961563,-0.01672 0.08138,0.0087 0.162922,0.01609 0.244141,0.02619 0.04981,0.0062 0.119905,-0.01823 0.148849,0.02278 0.135221,0.191582 -0.04392,0.54833 -0.127797,0.674597 -0.311112,0.468358 -0.706932,0.734603 -1.136214,1.089475 -0.265019,0.168048 -0.519324,0.35432 -0.795055,0.504143 -0.48917,0.265795 -1.171678,0.533918 -1.709361,0.686776 -0.240283,0.06831 -0.488379,0.10533 -0.732568,0.157996 -0.1545,0.01603 -0.31347,0.0079 -0.463501,0.04809 -0.05779,0.01548 -0.09272,0.07564 -0.139086,0.113462 -0.218998,-0.0427 -0.232667,-0.0021 -0.03788,-0.399839 0.310776,-0.634653 1.056276,-1.308893 1.635609,-1.687663 0.218358,-0.142764 0.460782,-0.244798 0.691173,-0.367199 0.531919,-0.220398 0.461455,-0.227465 0.937443,-0.320763 0.06189,-0.01214 0.125249,-0.01505 0.187767,-0.02339 0.02139,-0.0029 0.04454,-7.93e-4 0.06393,-0.01021 0.0093,-0.0045 0.0037,-0.02617 0.01396,-0.02786 0.0099,-0.0016 0.01352,0.01479 0.02028,0.02217 0.223831,0.671491 1.173463,0.354949 0.949632,-0.316543 z" />
    <path
       style="fill:#fabcad;stroke-width:0.264583"
       id="path7"
       d="m 18.870418,72.248794 c -0.153219,0.03856 -0.308622,0.06929 -0.459657,0.115668 -1.351694,0.415086 -2.651476,1.102576 -3.76073,1.979477 -0.318676,0.251923 -0.60629,0.540824 -0.909434,0.811234 -0.243298,0.287612 -0.508687,0.557905 -0.729894,0.862832 -0.378004,0.521071 -0.675056,1.058278 -0.775006,1.702943 -0.04083,0.263332 -0.05127,0.539092 0.0057,0.799415 0.05749,0.262866 0.146209,0.540306 0.330271,0.736584 0.237195,0.252937 0.586854,0.369538 0.88028,0.554308 0.349202,0.06806 0.692784,0.178186 1.047606,0.204179 0.854954,0.06263 1.693004,-0.09177 2.511191,-0.324015 0.902041,-0.25605 1.863804,-0.661625 2.684739,-1.111945 0.420517,-0.230672 0.81368,-0.508037 1.22052,-0.762056 0.351444,-0.290287 0.724599,-0.556133 1.054332,-0.870865 0.577771,-0.551485 1.079409,-1.173951 1.425577,-1.898087 0.293105,-0.613135 0.448712,-1.184658 0.273717,-1.863944 -0.07606,-0.295254 -0.273727,-0.544899 -0.410591,-0.817346 -0.247307,-0.203684 -0.452094,-0.47449 -0.741921,-0.611047 -0.752892,-0.354738 -1.684515,-0.352703 -2.484105,-0.274217 -0.860258,0.08444 -1.664629,0.309679 -2.474365,0.599003 -0.331181,0.118333 -0.650021,0.268711 -0.975031,0.403069 -0.65361,0.271651 -0.269437,1.195996 0.384173,0.924343 v 0 c 0.29696,-0.124142 0.588393,-0.262435 0.890878,-0.372432 0.739966,-0.269082 1.415677,-0.461084 2.201648,-0.553355 0.470942,-0.05528 1.356322,-0.09321 1.854403,0.07304 0.177879,0.05937 0.315378,0.202981 0.473067,0.30447 0.09488,0.137213 0.223923,0.256256 0.284646,0.411636 0.180778,0.462579 0.06817,0.81635 -0.135093,1.262149 -0.287689,0.630974 -0.710901,1.162606 -1.206978,1.643029 -0.295586,0.286258 -0.630898,0.528417 -0.946346,0.792628 -0.374174,0.235987 -0.735563,0.493577 -1.122521,0.707959 -0.763891,0.423209 -1.627558,0.789281 -2.466077,1.036407 -0.722288,0.212873 -1.374859,0.338852 -2.12529,0.315219 -0.256379,-0.0081 -0.507865,-0.07248 -0.761799,-0.108725 -0.149801,-0.04228 -0.319361,-0.0413 -0.449404,-0.126841 -0.246411,-0.162084 -0.287333,-0.547553 -0.261075,-0.796296 0.08887,-0.841864 0.687772,-1.488146 1.21125,-2.096955 0.272297,-0.245866 0.530151,-0.508738 0.816891,-0.737595 1.000088,-0.798205 2.20689,-1.447262 3.430156,-1.827733 0.136257,-0.04238 0.276598,-0.07029 0.414897,-0.105439 0.693456,-0.141844 0.49286,-1.122538 -0.200596,-0.980694 z" />
    <path
       style="fill:#fabcad;stroke-width:0.264583"
       id="path8"
       d="m 16.439598,60.395352 c 0.004,-0.452252 0.195691,-0.889365 0.432536,-1.267153 0.07988,-0.127408 0.174729,-0.244785 0.262094,-0.367178 0.109626,-0.101344 0.210826,-0.212643 0.32888,-0.304033 0.112083,-0.08677 0.231251,-0.166367 0.358754,-0.228288 0.07315,-0.03552 0.508708,-0.218273 0.525987,0.03091 0.0023,0.03299 -0.01685,0.06395 -0.02527,0.09592 -0.02245,0.134125 -0.05379,0.344043 -0.09632,0.459394 -0.04444,0.120541 -0.106393,0.234063 -0.166683,0.347511 -0.223487,0.420532 -0.201466,0.329486 -0.434713,0.720485 -0.05454,0.09142 -0.103152,0.18625 -0.154728,0.279376 -0.122807,0.376049 -0.246016,0.52611 0.330713,0.894649 0.169441,0.108275 0.697113,-0.109085 0.872006,-0.167246 0.499918,-0.166246 0.336849,-0.114221 0.874982,-0.248759 0.167528,-0.0275 0.333726,-0.06493 0.502584,-0.08251 0.376405,-0.03919 0.875177,-0.0583 1.211883,0.156276 0.18899,0.120441 0.255917,0.284475 0.365994,0.468683 0.03316,0.113917 0.0898,0.223502 0.09948,0.341752 0.02478,0.302543 -0.09778,0.834313 -0.17695,1.093973 -0.144179,0.472882 -0.349498,0.913074 -0.583986,1.346954 -0.112225,0.20765 -0.240418,0.406267 -0.360627,0.609401 -0.253319,0.426009 -0.568336,0.810239 -0.842883,1.221664 -0.04561,0.06834 -0.109353,0.130577 -0.128134,0.210563 -0.03551,0.15123 -0.13792,0.352819 -0.0305,0.465032 0.186415,0.194722 0.502975,0.194132 0.754462,0.291197 1.038729,-0.464886 -0.439874,0.200777 0.61518,-0.287372 0.265757,-0.122959 0.556929,-0.255354 0.860531,-0.214743 0.04495,0.006 0.0827,0.03726 0.12405,0.0559 -0.01285,0.01648 -0.0257,0.03296 -0.03854,0.04944 -0.02643,0.0051 -0.05991,-0.0033 -0.07929,0.01543 -0.03228,0.03112 -0.03684,0.08213 -0.06104,0.11988 -0.05028,0.07842 -0.10352,0.155207 -0.161878,0.22782 -0.327256,0.407199 -0.342599,0.38786 -0.765411,0.773395 -0.509469,0.395566 -0.723823,0.588952 -1.303252,0.917798 -0.303628,0.17232 -0.617726,0.326101 -0.934122,0.473672 -0.717003,0.334421 -1.295505,0.559695 -2.048922,0.795224 -0.294395,0.09203 -0.595023,0.162796 -0.892534,0.244195 -0.369957,0.06313 -0.704376,0.16039 -1.078175,0.113112 -0.03745,-0.0047 -0.128189,-0.07971 -0.09548,-0.06087 0.08637,0.04974 0.19527,0.075 0.256539,0.15362 0.190875,0.244922 -0.05908,0.292981 0.140395,0.232021 -0.130681,-0.09036 0.184881,-0.01339 0.141513,0.0053 -0.142246,0.06114 -0.195671,-0.02064 -0.310058,-0.104439 -0.02679,-0.01963 -0.04715,-0.08156 -0.07577,-0.06471 -0.0633,0.03727 -0.0826,0.121508 -0.123893,0.182261 -0.08707,0.09838 -0.168656,0.201888 -0.261194,0.295135 -0.621014,0.625784 -1.379225,1.123511 -2.157573,1.530149 -0.230816,0.120584 -0.469986,0.224459 -0.704979,0.33669 -0.643567,0.272074 -1.318692,0.512329 -2.0215672,0.568968 -0.3018221,0.02431 -0.7007056,0.0016 -0.9936295,-0.104373 -0.1071843,-0.0388 -0.1969685,-0.114805 -0.295453,-0.172209 -0.053904,-0.07091 -0.1207982,-0.133607 -0.1617107,-0.212723 -0.1569215,-0.303461 -0.07787,-0.749733 0.069509,-1.040159 0.026196,-0.05162 0.066512,-0.09477 0.099768,-0.142155 0.1636575,-0.09737 -0.1074396,0.122761 -0.1729748,0.10605 -0.1980099,-0.05049 -0.3505779,-0.210193 -0.522329,-0.320913 -0.022212,-0.01431 -0.03611,-0.06755 -0.058499,-0.05351 -0.087027,0.05457 -0.1389266,0.151484 -0.2123265,0.223348 C 7.0089581,71.529582 6.8767728,71.64869 6.7471376,71.770456 6.2703989,72.169022 5.7420678,72.5024 5.149794,72.701149 4.9721935,72.760749 4.7902385,72.81292 4.6044576,72.836989 4.1879027,72.890895 4.0431608,72.821423 3.6478646,72.730155 3.2802065,72.544595 3.1616065,72.524278 2.871253,72.215684 2.4949476,71.815737 2.2813569,71.273836 2.1817528,70.740976 c -0.038248,-0.204621 -0.04317,-0.414084 -0.064754,-0.621126 0.012261,-0.224118 0.00983,-0.449527 0.036784,-0.672354 0.091877,-0.759486 0.346078,-1.613717 0.8073636,-2.235689 0.070719,-0.09535 0.1599247,-0.175495 0.2398868,-0.263242 0.062083,-0.04257 0.1189553,-0.09397 0.18625,-0.127701 0.096899,-0.04857 0.131857,0.114501 -0.080547,0.04589 -0.2920016,-0.09432 -0.3471913,-0.172403 -0.3691036,-0.439926 -0.00308,-0.03763 0.019032,-0.07307 0.028549,-0.109601 0.029086,-0.03041 0.058173,-0.06081 0.087259,-0.09122 0.038203,-0.01373 0.082809,-0.01598 0.1146077,-0.04123 0.048364,-0.03839 -0.04259,-0.175725 -0.064786,-0.245872 -0.1010889,-0.319466 -0.101246,-0.42355 -0.156899,-0.779317 -0.06037,-0.62552 -0.048236,-1.258393 0.040119,-1.88096 0.032226,-0.227068 0.066904,-0.454866 0.126891,-0.676224 0.1490702,-0.550085 0.3239397,-0.864712 0.5646931,-1.378908 0.1217885,-0.196379 0.2286439,-0.402847 0.3653655,-0.58914 0.3494362,-0.476128 0.8547936,-0.913365 1.4822826,-0.885447 0.089332,0.004 0.1750869,0.03645 0.2626307,0.05468 0.057085,0.03609 0.1203994,0.06384 0.1712536,0.108278 0.1047076,0.09151 0.1609919,0.235569 0.1368293,0.373967 -0.018135,0.103867 -0.031824,0.05271 -0.045137,0.0241 0.455881,-0.431991 0.079325,-0.227428 0.8210139,-0.04201 0.02368,0.0059 0.029475,-0.04007 0.036625,-0.06341 0.028125,-0.09181 0.039962,-0.188124 0.068513,-0.279802 0.1296697,-0.416391 0.1763231,-0.471546 0.3754557,-0.887915 0.105679,-0.171789 0.202107,-0.349623 0.3170372,-0.515364 0.4615717,-0.665633 1.1017856,-1.327369 1.8268029,-1.705885 0.140716,-0.07346 0.2945987,-0.118337 0.4418981,-0.177506 0.3267721,-0.052 0.6929961,-0.09744 0.9730881,0.131887 0.243175,0.199101 0.264557,0.563229 0.301905,0.843028 0.01206,0.380802 -0.04757,0.754502 -0.149845,1.119963 -0.03838,0.137131 -0.08958,0.302509 -0.150648,0.435361 0.314088,0.117936 0.611718,0.296373 0.942265,0.353809 0.06487,0.01127 0.06111,-0.116676 0.09391,-0.173762 0.04617,-0.08036 0.09322,-0.160277 0.142962,-0.23848 0.129723,-0.203946 0.287001,-0.434366 0.442211,-0.618069 0.09162,-0.108437 0.193531,-0.207741 0.290296,-0.311608 0.105702,-0.09567 0.205299,-0.198541 0.317106,-0.286994 0.298995,-0.23654 0.721087,-0.468005 1.112633,-0.313356 0.06656,0.0263 0.120706,0.07691 0.181059,0.115371 0.13154,0.161828 0.194814,0.214628 0.270401,0.422302 0.03593,0.09872 0.05679,0.20266 0.0748,0.306157 0.0667,0.383217 0.04023,0.759656 0.01649,1.144932 -0.03262,0.493971 -0.126848,0.985578 -0.108933,1.481865 0.03382,0.175572 0.04383,0.351975 0.255001,0.451233 0.146862,0.06903 0.323408,0.04973 0.485298,0.03855 0.06119,-0.0042 0.154018,-0.09908 0.204771,-0.140512 0.0034,-0.0028 -0.0055,0.0068 -0.0083,0.01027 0.169725,-0.123066 0.291716,-0.233881 0.325958,-0.473255 0.01226,-0.08572 -0.02842,-0.170844 -0.04263,-0.256267 -0.257898,-0.659159 -1.190088,-0.294434 -0.93219,0.364722 v 0 c -0.0072,-0.06761 -0.03558,-0.136265 -0.02172,-0.20284 0.01958,-0.09406 0.07217,-0.17858 0.118628,-0.262673 0.01136,-0.02056 0.03499,-0.03133 0.05246,-0.04702 0.0028,-0.0026 -0.0054,0.0052 -0.0085,0.0075 -0.08509,0.06331 -0.0313,0.02035 -0.07877,0.05883 -0.02766,0.02143 -0.05569,0.04241 -0.08298,0.06431 -0.0033,0.0027 0.0072,-0.0046 0.01098,-0.0065 0.02909,-0.01513 0.05482,-0.04544 0.0876,-0.04477 0.148747,0.0031 0.310683,-0.01265 0.44285,0.05568 0.182143,0.09415 0.179782,0.202327 0.191518,0.339135 -0.0074,-0.126143 6.61e-4,-0.248563 0.01176,-0.374743 0.02948,-0.335095 0.06968,-0.669245 0.09639,-1.004607 0.0087,-0.153281 0.02304,-0.306348 0.02601,-0.459846 0.0102,-0.527568 -0.02796,-1.075814 -0.256525,-1.562274 -0.211015,-0.449107 -0.33554,-0.491694 -0.700752,-0.814208 -0.164653,-0.06848 -0.32069,-0.163277 -0.493958,-0.205451 -0.698089,-0.169919 -1.373012,0.139157 -1.90435,0.568277 -0.133283,0.107643 -0.252206,0.231944 -0.378309,0.347916 -0.117383,0.128527 -0.24059,0.251968 -0.352149,0.385586 -0.175479,0.210171 -0.356461,0.476094 -0.503649,0.709186 -0.05721,0.0906 -0.111186,0.183221 -0.164404,0.276217 -0.03604,0.06298 -0.157185,0.143 -0.103308,0.191598 0.247722,0.223457 0.578686,0.332145 0.868029,0.498216 0.202844,-0.485256 0.34022,-1.016699 0.369132,-1.5425 0.01073,-0.195217 -0.0026,-0.391017 -0.0039,-0.586525 -0.104194,-0.494358 -0.10032,-0.755463 -0.428146,-1.170877 -0.395702,-0.501428 -0.985699,-0.697976 -1.606549,-0.659289 -0.2072429,0.01291 -0.4085554,0.07448 -0.6128328,0.111721 -0.1984666,0.0861 -0.4051183,0.155368 -0.5954001,0.258302 -0.8458551,0.457565 -1.6036078,1.238684 -2.1405902,2.027425 -0.1333775,0.195908 -0.2448822,0.40585 -0.3673234,0.608775 -0.2150502,0.46107 -0.3166089,0.624265 -0.4483106,1.10241 -0.040797,0.148114 -0.077696,0.298815 -0.090533,0.451906 -0.037496,0.447159 0.013819,0.771519 0.6479371,0.865081 C 6.7175498,61.052897 6.8208821,60.83928 6.953033,60.74435 6.988294,60.65101 7.039497,60.562219 7.0588144,60.464326 7.171488,59.893853 6.8827422,59.309002 6.3916538,59.008911 6.2475863,58.920877 6.0805543,58.877612 5.9250045,58.811961 5.4372303,58.761642 5.3105814,58.701582 4.8190853,58.850392 4.1314973,59.058566 3.6019052,59.537311 3.1901971,60.11092 3.0329518,60.33 2.9100761,60.571811 2.7700158,60.802257 c -0.296897,0.645269 -0.458183,0.923158 -0.6410012,1.618385 -0.065885,0.25055 -0.1039409,0.507979 -0.1391699,0.764638 -0.097162,0.707872 -0.106491,1.426816 -0.031179,2.13696 0.032829,0.191741 0.053766,0.3859 0.098485,0.575218 0.1347492,0.570454 0.4594511,1.355 1.1834458,1.311899 0.1414524,-0.0084 0.2651028,-0.100195 0.3976542,-0.150294 0.1924799,-0.239921 0.4321265,-0.416065 0.2705701,-0.794022 -0.2187911,-0.511855 -0.7428807,-0.476581 -1.1250081,-0.242814 -0.1218975,0.07457 -0.2237739,0.177776 -0.3356609,0.266666 -0.1129829,0.132458 -0.2379654,0.255555 -0.3389487,0.397375 -0.5420726,0.761277 -0.8586165,1.794883 -0.9554019,2.716056 -0.029013,0.27614 -0.020794,0.554929 -0.031192,0.832395 0.083369,0.670012 0.066105,0.887026 0.3169714,1.516346 0.279383,0.700852 0.7162978,1.288962 1.3726763,1.678109 0.1996334,0.118356 0.4243856,0.187997 0.6365782,0.281998 0.6224008,0.114541 0.7631084,0.192934 1.4072915,0.09461 0.2345177,-0.0358 0.4635905,-0.105717 0.687405,-0.184375 0.70192,-0.246685 1.329487,-0.646698 1.8938266,-1.126022 0.4865476,-0.468344 1.6524237,-1.438725 0.4042891,-1.936366 -0.2266434,-0.09036 -0.4809341,0.248779 -0.5942975,0.370273 -0.063436,0.111311 -0.1398461,0.216173 -0.1903095,0.333934 -0.2799162,0.653211 -0.2885678,1.465074 0.1490781,2.057545 0.1191041,0.16124 0.2893415,0.277519 0.4340122,0.41628 0.186072,0.0876 0.3621238,0.200795 0.5582161,0.262797 0.2055135,0.06498 0.4214939,0.09754 0.6363348,0.114909 0.7595108,0.06142 1.5251085,-0.11298 2.2392165,-0.356055 0.259473,-0.08832 0.509512,-0.202248 0.764268,-0.303372 0.25637,-0.123452 0.517318,-0.237818 0.76911,-0.370358 0.471988,-0.248447 0.953807,-0.546394 1.386061,-0.859814 0.352653,-0.255704 0.736096,-0.571368 1.037045,-0.890765 0.130303,-0.138289 0.242194,-0.292835 0.363291,-0.439253 0.164196,-0.303919 0.369521,-0.562213 0.281768,-0.946862 -0.11723,-0.513863 -0.626107,-0.653486 -1.064863,-0.519512 -0.123072,0.03758 -0.231435,0.11258 -0.347153,0.168871 -0.102226,0.09692 -0.243541,0.16483 -0.306679,0.290753 -0.238439,0.475546 -0.215896,0.732808 0.226545,1.047893 0.118917,0.08469 0.278069,0.09766 0.42332,0.112329 0.458288,0.0463 0.88505,-0.06957 1.33264,-0.148855 0.318737,-0.088 0.640831,-0.164642 0.956211,-0.264004 0.785121,-0.247354 1.429229,-0.497591 2.174928,-0.849 0.347086,-0.163563 0.691252,-0.33469 1.024068,-0.525621 0.64079,-0.367615 0.873869,-0.580488 1.437796,-1.022417 0.373026,-0.348763 0.680975,-0.589671 0.95913,-1.01905 0.20622,-0.318336 0.384149,-0.681096 0.321513,-1.077071 -0.02848,-0.18007 -0.09727,-0.361006 -0.208012,-0.505825 -0.09998,-0.130742 -0.266716,-0.192924 -0.400074,-0.289386 -0.143612,-0.02824 -0.284707,-0.07645 -0.430835,-0.08471 -0.14577,-0.0082 -0.292813,0.01008 -0.436552,0.03568 -0.45308,0.08073 -0.854937,0.301263 -1.260677,0.505246 0.870381,0.667668 0.351106,0.04049 0.416628,0.719405 0.0054,0.05646 0.05479,-0.0995 0.08635,-0.146632 0.290884,-0.434536 0.622645,-0.841606 0.889027,-1.292924 0.132417,-0.225822 0.27416,-0.446429 0.397251,-0.677468 0.264072,-0.495657 0.512005,-1.035238 0.663794,-1.577988 0.148623,-0.531429 0.240638,-1.078762 0.143544,-1.631352 -0.03594,-0.204566 -0.147717,-0.388242 -0.221575,-0.582364 -0.313646,-0.421836 -0.363918,-0.587216 -0.849308,-0.840994 -0.516926,-0.270264 -1.155781,-0.264753 -1.717411,-0.202086 -0.195647,0.02183 -0.388128,0.06613 -0.582192,0.0992 -0.568818,0.144783 -0.445567,0.101299 -0.958872,0.273884 -0.09352,0.03144 -0.201919,0.0373 -0.27897,0.09893 -0.02538,0.02029 0.05493,0.03995 0.06829,0.06958 0.204526,0.453258 0.250667,0.775473 0.213835,0.532085 0.04152,-0.07607 0.08012,-0.153799 0.124555,-0.228198 0.07563,-0.126616 0.160405,-0.247642 0.235499,-0.374578 0.192339,-0.325128 0.404271,-0.690523 0.505588,-1.057529 0.144224,-0.522433 0.06818,-0.607184 -0.0245,-1.131559 -0.117393,-0.155742 -0.199312,-0.346112 -0.352178,-0.467226 -0.145194,-0.115035 -0.329388,-0.183525 -0.511561,-0.217101 -0.555148,-0.102319 -1.14945,0.230024 -1.555966,0.567473 -0.163982,0.136123 -0.302638,0.300144 -0.453958,0.450218 -0.108858,0.157464 -0.227287,0.308726 -0.326576,0.472392 -0.305036,0.502822 -0.532123,1.079834 -0.547412,1.673627 -0.002,0.07908 0.0088,0.157959 0.01319,0.23694 0.123008,0.697042 1.108776,0.523084 0.985768,-0.173958 z" />
    <path
       style="fill:#fabcad;stroke-width:0.264583"
       id="path10"
       d="m 8.5959166,67.140729 c 0.1988269,-0.4236 0.5017024,-0.779748 0.8123184,-1.124468 0.4672965,-0.455615 0.941975,-0.931662 1.521655,-1.245362 0.0933,-0.05049 0.192235,-0.08981 0.288352,-0.134715 0.375504,-0.109509 0.765382,-0.100651 1.145409,-0.01873 0.199318,0.04297 0.327976,0.09268 0.520095,0.157848 0.367828,0.132424 0.731472,0.283421 1.115203,0.365305 0.233609,0.04985 0.286061,0.04738 0.517116,0.06704 0.168802,5.29e-4 0.341789,0.01688 0.509307,-0.01476 0.04802,-0.0091 0.09442,-0.02529 0.141632,-0.03792 0.668731,-0.231945 0.340711,-1.177674 -0.32802,-0.94573 v 0 c 0.01959,-0.0031 0.039,-0.0077 0.05878,-0.0092 0.0137,-0.0011 -0.02677,0.0068 -0.04047,0.0078 -0.08247,0.006 -0.182573,0.0028 -0.263637,0.0019 -0.152639,-0.01019 -0.19471,-0.0083 -0.351099,-0.03995 -0.359426,-0.07278 -0.696399,-0.224758 -1.041432,-0.343754 -0.263016,-0.08691 -0.40747,-0.143177 -0.684352,-0.197716 -0.418104,-0.08235 -0.856237,-0.104722 -1.276767,-0.02259 -0.154201,0.03011 -0.302501,0.08504 -0.453751,0.127564 -0.127723,0.06218 -0.259013,0.117512 -0.383169,0.186539 -0.6595353,0.366681 -1.2097054,0.900345 -1.7401931,1.428342 -0.090407,0.101291 -0.1835955,0.20016 -0.2712196,0.303866 -0.2763571,0.327073 -0.5184884,0.683263 -0.704623,1.069306 -0.2966151,0.642668 0.6122522,1.062146 0.9088673,0.419478 z" />
    <path
       style="fill:#fabcad;stroke-width:0.264583"
       id="path11"
       d="m 14.048097,62.302868 c -0.05428,0.02138 -0.111223,0.03694 -0.162827,0.06415 -0.499043,0.263091 -0.763078,0.691599 -1.039117,1.161446 -0.224411,0.407107 -0.371918,0.848831 -0.542086,1.279602 -0.118241,0.299321 -0.126669,0.311727 -0.255127,0.606708 -0.17381,0.388379 -0.390888,0.752777 -0.677609,1.068867 -0.172241,0.189883 -0.345899,0.341193 -0.534608,0.5145 -0.282437,0.226026 -0.5697,0.479867 -0.9251243,0.583997 -0.1224314,0.03587 -0.1781357,0.02887 -0.301594,0.03082 -0.1583489,-0.0089 -0.3093284,-0.05857 -0.4375536,-0.15344 -0.015552,-0.01151 -0.079083,-0.08422 -0.089526,-0.0959 -0.020936,-0.02384 -0.021545,-0.04473 -0.029962,-0.07198 -0.2774474,-0.651171 -1.1983421,-0.258802 -0.9208947,0.39237 v 0 c 0.061592,0.13753 0.1306116,0.269578 0.2358959,0.380206 0.043418,0.04278 0.083954,0.0887 0.1302536,0.128344 0.329303,0.28198 0.7418562,0.415348 1.1726489,0.419552 0.2806192,-0.02312 0.3451362,-0.01201 0.6189622,-0.103171 0.464839,-0.154737 0.854791,-0.46564 1.225281,-0.774724 0.243039,-0.224689 0.41069,-0.369012 0.632372,-0.618434 0.343862,-0.386893 0.608243,-0.830792 0.819402,-1.301774 0.138153,-0.318045 0.144863,-0.326128 0.271473,-0.646623 0.150551,-0.381096 0.279807,-0.772279 0.472769,-1.135105 0.158918,-0.27585 0.322459,-0.588187 0.600352,-0.76367 0.682873,-0.186237 0.419492,-1.151966 -0.263381,-0.965729 z" />
    <path
       style="fill:#fabcad;stroke-width:0.264583"
       id="path12"
       d="m 14.030399,63.131969 c 0.186132,0.331216 0.346749,0.674899 0.489064,1.026949 0.061,0.131079 0.09268,0.27228 0.136517,0.408955 0.0073,0.02291 -0.02615,-0.04738 -0.01777,-0.06993 0.0509,-0.136991 0.07877,-0.300662 0.190485,-0.394885 0.09717,-0.08196 0.248554,-0.0535 0.372832,-0.08025 0.01288,0.0016 0.03193,0.01553 0.03863,0.0044 0.0065,-0.01074 -0.0169,-0.01868 -0.02366,-0.02923 -0.0072,-0.0113 -0.01271,-0.02363 -0.0181,-0.03592 -0.0316,-0.07203 -0.04839,-0.147809 -0.06655,-0.224006 -0.03453,-0.117531 -0.02619,-0.243282 -0.04978,-0.362231 -0.0094,-0.04725 0.01314,-0.130982 -0.0341,-0.140441 -0.302957,-0.06066 -0.61698,-0.03446 -0.92547,-0.05169 -0.07412,0.174644 -0.0869,0.354357 -0.09993,0.540049 -0.0037,0.0528 -0.0043,0.105818 -0.0094,0.158502 -0.002,0.0205 -0.01825,0.08021 -0.01171,0.06067 0.01301,-0.03887 0.02082,-0.07931 0.03123,-0.11896 0.23022,-0.06512 0.46044,-0.13023 0.69066,-0.195347 0.03732,0.03172 0.06428,0.08396 0.111955,0.09517 0.02682,0.0063 -0.02117,-0.05086 -0.03172,-0.07631 -0.03246,-0.07832 -0.07551,-0.190601 -0.119809,-0.2608 -0.03592,-0.05692 -0.0806,-0.107815 -0.120902,-0.161722 -0.121703,-0.05812 -0.230405,-0.181006 -0.365108,-0.174352 -0.410898,0.02029 -0.470906,0.175993 -0.595233,0.449395 -0.01261,0.02773 -0.05545,0.07486 -0.02756,0.08715 0.02774,0.01222 0.0074,-0.06914 0.03348,-0.08454 0.158744,-0.09367 0.33477,-0.154347 0.502155,-0.231521 0.435507,0.364889 0.19703,0.05055 0.14582,0.01691 -0.08701,-0.05716 -0.17269,-0.136716 -0.276436,-0.145325 -0.378633,-0.03142 -0.403688,0.06119 -0.607124,0.267353 -0.183701,0.326189 -0.01975,0.02697 -0.122225,0.228857 -0.0028,0.0056 0.0019,-0.01344 0.0066,-0.01765 0.07206,-0.06545 0.127359,-0.166706 0.221915,-0.189867 0.271366,-0.06647 0.311821,-0.03716 0.443269,0.04424 -0.08059,-0.03375 -0.154887,-0.09205 -0.241774,-0.101235 -0.21414,-0.02265 -0.357526,0.03639 -0.508211,0.170457 -0.04979,0.0443 -0.08463,0.102976 -0.126946,0.154464 -0.411177,0.576138 0.403605,1.157629 0.814781,0.581491 v 0 c -0.200553,0.123608 -0.349244,0.112964 -0.55004,-0.0132 0.158898,0.114808 0.208064,0.165301 0.522894,0.100111 0.110369,-0.02286 0.184853,-0.130223 0.267335,-0.207037 0.0079,-0.0074 0.07167,-0.118687 0.08066,-0.14801 9e-4,-0.0029 -0.0061,2.17e-4 -0.0092,2.64e-4 -0.147907,0.10672 -0.169023,0.145397 -0.436206,0.100447 -0.07579,-0.01275 -0.130499,-0.0813 -0.194006,-0.124579 -0.0031,-0.0021 -0.0063,-0.01315 -0.004,-0.01035 0.02645,0.03116 0.04371,0.07144 0.07652,0.09582 0.09065,0.06737 0.192967,0.11744 0.28945,0.176159 0.185139,-0.07342 0.383478,-0.11975 0.555416,-0.220271 0.04696,-0.02745 0.04974,-0.0968 0.0719,-0.146478 0.0063,-0.01413 0.02613,-0.05299 0.01326,-0.04444 -0.02732,0.01815 -0.03173,0.06336 -0.06173,0.07663 -0.444384,0.196509 -0.326364,0.174427 -0.675531,-0.03468 -0.005,-0.01323 -0.02333,-0.05101 -0.01492,-0.03966 0.07863,0.106157 0.09138,0.250773 0.16387,0.360532 0.304016,0.460333 0.216067,0.243602 0.95554,0.101108 0.02637,-0.06892 0.0593,-0.135678 0.07911,-0.206764 0.0368,-0.132056 0.02771,-0.282583 0.03934,-0.418396 0.0023,-0.02729 0.0336,-0.07154 0.0082,-0.08176 -0.02459,-0.0099 -0.0256,0.04641 -0.03841,0.06961 -0.299168,-0.03419 -0.598336,-0.06838 -0.897503,-0.102568 -0.0054,-0.0297 0.0023,-0.06534 -0.0163,-0.0891 -0.01618,-0.02064 0.0049,0.05221 0.0078,0.07827 0.01631,0.148444 0.03631,0.296656 0.07059,0.442211 0.01797,0.06443 0.03226,0.130003 0.05389,0.193297 0.09094,0.266073 0.24405,0.524343 0.483446,0.683024 0.06245,0.04139 0.132058,0.0708 0.198087,0.106191 0.162668,-0.01461 0.350993,0.04506 0.488005,-0.04383 0.449426,-0.29159 0.187742,-0.796756 0.05921,-1.151009 -0.15306,-0.375661 -0.321883,-0.744419 -0.521227,-1.098084 -0.316544,-0.633088 -1.211866,-0.185428 -0.895322,0.447661 z" />
    <path
       style="fill:#fabcad;stroke-width:0.264583"
       id="path13"
       d="m 10.417319,66.658878 c 0.0586,-0.251941 0.07664,-0.544721 -0.106423,-0.760084 -0.07496,-0.08818 -0.172549,-0.165206 -0.282179,-0.202295 -0.1147593,-0.03882 -0.2420627,-0.01066 -0.3630943,-0.01601 -0.088162,0.04417 -0.1878192,0.07049 -0.2644864,0.132498 -0.2969755,0.2402 -0.3986938,0.766871 -0.1120148,1.062112 0.091908,0.09465 0.2307619,0.127963 0.346143,0.191942 0.1261255,-0.01823 0.2609709,-0.0051 0.3783765,-0.05465 0.330466,-0.139481 0.449363,-0.568852 0.35662,-0.886272 -0.01813,-0.06206 -0.0515,-0.118608 -0.07726,-0.177911 -0.04711,-0.05496 -0.08199,-0.12341 -0.141325,-0.164868 C 9.9349405,65.631906 9.7675344,65.613745 9.5134077,65.73108 9.362864,65.80059 9.2907954,65.960993 9.245866,66.105005 c -0.011345,0.03637 -0.010941,0.0754 -0.016409,0.113094 0.011594,0.382995 -0.02845,0.09085 0.7324632,0.496056 0.6419528,-0.298156 0.2202978,-1.206013 -0.4216548,-0.907859 v 0 c 0.7100606,0.421397 0.6868026,0.141459 0.6873186,0.487579 -0.05245,0.257607 -0.2694204,0.385419 -0.5377698,0.349436 -0.075108,-0.01008 -0.1400183,-0.06197 -0.1996588,-0.108718 -0.034559,-0.02709 -0.050772,-0.07166 -0.076158,-0.107484 -0.00572,-0.02252 -0.014478,-0.04449 -0.017142,-0.06757 -0.014055,-0.121808 0.125248,-0.24966 0.231621,-0.271081 0.077388,-0.01558 0.1578555,0.0029 0.2367831,0.0044 0.069088,0.05305 0.1557045,0.08895 0.2072645,0.159154 0.107846,0.146849 0.05711,0.305158 -0.092164,0.377402 -0.039119,0.01894 -0.083889,0.02275 -0.1258337,0.03412 -0.071506,-0.01484 -0.1498439,-0.01064 -0.2145165,-0.04456 -0.061701,-0.03237 -0.1121061,-0.08738 -0.1492944,-0.146301 -0.1084826,-0.171879 -0.015888,-0.202671 -0.032182,-0.101402 -0.2033886,0.677963 0.7553946,0.965597 0.9587836,0.287634 z" />
  </g>
</svg>
