<?xml version="1.0" encoding="UTF-8" standalone="no"?>
<!-- Created with Inkscape (http://www.inkscape.org/) -->

<svg
   width="40.019283mm"
   height="21.368351mm"
   viewBox="0 0 40.019283 21.368351"
   version="1.1"
   id="svg1"
   xml:space="preserve"
   xmlns:inkscape="http://www.inkscape.org/namespaces/inkscape"
   xmlns:sodipodi="http://sodipodi.sourceforge.net/DTD/sodipodi-0.dtd"
   xmlns="http://www.w3.org/2000/svg"
   xmlns:svg="http://www.w3.org/2000/svg"><sodipodi:namedview
     id="namedview1"
     pagecolor="#ffffff"
     bordercolor="#000000"
     borderopacity="0.25"
     inkscape:showpageshadow="2"
     inkscape:pageopacity="0.0"
     inkscape:pagecheckerboard="0"
     inkscape:deskcolor="#d1d1d1"
     inkscape:document-units="mm"
     inkscape:zoom="0.54208404"
     inkscape:cx="156.80226"
     inkscape:cy="570.02232"
     inkscape:window-width="2560"
     inkscape:window-height="1494"
     inkscape:window-x="-11"
     inkscape:window-y="1609"
     inkscape:window-maximized="1"
     inkscape:current-layer="layer1"><inkscape:page
       x="6.4517127e-07"
       y="-5.1174989e-06"
       width="40.019283"
       height="21.368351"
       id="page1"
       margin="0"
       bleed="0" /></sodipodi:namedview><defs
     id="defs1" /><g
     id="g1"
     inkscape:groupmode="layer"
     inkscape:label="1"
     transform="matrix(0.26458333,0,0,0.26458334,217.73523,-120.50793)"><g
       id="g8135"
       transform="translate(-100.42602,-128.86358)"
       inkscape:export-filename="g8135.svg"
       inkscape:export-xdpi="96"
       inkscape:export-ydpi="96"><path
         style="fill:#fabcad;fill-opacity:1"
         d="m -632.93199,664.75286 c 11.77638,-1.19549 22.30145,-7.5337 31.21076,-15.01048 7.53147,-6.84226 14.63022,-14.1862 21.29291,-21.86896 3.33784,-3.91473 5.81325,-8.50865 7.57145,-13.27491 0.54716,-2.03989 2.1737,-4.34816 1.3917,-6.38686 -1.53257,-1.59237 -3.15121,1.3338 -4.71043,1.71992 -3.97753,1.89384 -8.32154,-0.46226 -11.66371,-2.68805 -9.6216,-5.00781 8.68934,6.11064 -9.12547,-5.60684 -2.34573,-0.62393 -4.98115,-1.78093 -7.29083,-1.53611 -1.36204,1.04414 -1.89577,1.37867 -4.32308,2.2582 -2.26395,-0.17853 -2.23488,-0.17411 -5.23991,0.23458 -2.64664,-0.46318 -3.1327,-4.09501 -5.13712,-5.64713 -2.9726,-3.37342 -6.79522,-5.90302 -10.84781,-7.80267 2.14265,2.61017 2.89562,6.45261 1.9943,9.64258 -0.90336,3.31868 -5.31205,3.76154 -7.85217,2.11903 -2.75362,-1.50855 -4.3469,-4.62566 -5.39731,-7.44049 0.13386,-2.41677 0.11787,-4.92489 1.72645,-6.98568 -5.20697,-0.93786 -11.26087,0.11583 -16.16065,1.90435 -1.82197,1.04967 -3.53781,0.54623 -3.28965,2.4275 -3.15938,1.57555 -5.80959,3.87133 -8.46115,6.16521 -2.89375,1.8343 -2.57113,1.81606 -3.62578,3.18587 -4.60184,6.05455 -7.01881,13.78441 -6.62273,21.39376 -0.7745,17.07979 -1.21622,15.27054 1.66409,21.09329 1.63053,4.7693 8.76898,8.87938 8.76898,8.87938 7.14153,8.04879 18.02787,13.11471 28.80808,13.5076 1.77143,0.17211 3.55673,-0.11655 5.31912,-0.28309 z"
         id="path8138"
         sodipodi:nodetypes="sccccccccccccccccccccccccss" /><path
         style="fill:#693c03;fill-opacity:1"
         d="m -721.91304,653.42247 c -1.58302,-0.35424 0.54374,0.83371 0,0 z m 94.42708,-58.5621 c -0.47173,-3.85748 -2.88554,-7.35629 -5.88841,-9.71033 -1.82892,-1.36805 -3.64715,-0.85375 -5.46203,0.25061 -2.8747,1.90362 -2.68269,5.78326 -2.00346,8.74517 1.53364,3.74532 4.3184,7.7894 8.81582,7.73777 0.32765,0.10094 5.34123,-0.38947 4.53808,-7.02322 z m -7.65192,5.51067 c -4.98486,-2.658 -7.82906,-11.44775 -3.0066,-14.96098 1.82783,-1.36176 4.23045,-0.27813 5.78976,1.09837 -14.88156,8.69771 -6.31061,11.07874 4.0944,11.79118 -0.084,0.24354 -1.74826,4.60552 -6.87756,2.07143 z m -29.61961,-5.45167 c 1.80493,-1.81659 4.06604,-2.99661 6.24648,-4.28919 0.2283,-3.11999 -4.08904,-4.39946 -6.19946,-2.44935 -2.32759,1.32976 -3.4711,4.3444 -3.53061,6.86197 0.72589,3.3229 1.85599,1.05195 3.48359,-0.12343 z m -2.97074,0.16457 c -0.15468,-2.34767 0.7298,-4.67329 2.66009,-6.11435 1.03191,-1.61073 4.13087,-1.41567 5.34222,-0.46864 1.93282,1.89244 -1.55767,2.68474 -2.6418,3.76078 -1.96547,0.73315 -3.29565,3.39591 -5.24444,3.41979 l -0.0678,-0.34925 z"
         id="path8137"
         inkscape:label="path8137"
         sodipodi:nodetypes="ccccccccccccccccccccccccc" /><path
         style="fill:#000000;fill-opacity:1"
         d="m -622.68995,653.00434 c 1.18999,0.3673 5.00046,-2.49132 2.70743,-1.65025 -4.9566,2.25981 -10.58267,0.56532 -14.99849,-2.14335 -3.40699,-1.38313 -5.37888,-4.71561 -8.07158,-7.06898 -1.13422,-2.93192 -4.09889,-5.65136 -3.12926,-8.95988 0.99149,-2.46434 2.7501,0.94127 3.88933,1.66742 2.56304,0.54695 5.30217,0.4462 7.23148,-1.58009 2.78294,-1.85829 -0.68704,-1.05375 -1.79287,0.0331 -1.94411,0.97116 -4.61688,1.25623 -5.93472,-0.80929 -1.11134,-1.86015 -3.36669,-1.99426 -4.68039,-0.26706 -0.0305,2.40422 -0.33482,4.87943 1.38413,6.82992 3.16348,6.50028 9.40074,11.2752 16.22486,13.4476 2.3314,0.80113 4.75015,1.08566 7.17008,0.50091 z m -35.49011,-5.70643 c -0.0167,-1.88418 -3.74309,-2.74117 -1.34136,-0.58123 0.27454,0.22239 1.26062,1.48201 1.34136,0.58123 z m 6.38934,-0.6013 c -0.57704,-0.64196 -3.2814,-4.37896 -3.19174,-2.01509 0.90864,0.57379 2.21964,3.1074 3.19174,2.01509 z m -17.57991,-0.0744 c -1.45607,-1.43097 -4.09274,-2.13458 -5.89296,-3.49449 -2.99469,-1.67713 -5.30503,-4.4383 -7.42561,-7.0845 -1.863,-2.65695 -2.96428,-5.86025 -3.92001,-8.86191 -0.98467,-1.63246 -3.38905,-2.7964 -3.48912,-4.72077 -0.0955,-2.42869 3.51601,-1.33531 4.28575,0.30489 3.04532,3.33943 7.17765,6.12592 11.87819,5.7954 2.05493,-1.35627 -2.46976,-0.66992 -3.38597,-1.62031 -1.64548,-1.24752 -3.74629,-1.09396 -4.95274,-2.86314 -2.19088,-1.85412 -3.81996,-4.66759 -6.90639,-4.9924 -2.3523,0.18769 -3.04213,1.13228 -2.57221,3.77021 0.5076,1.96729 2.41217,3.41763 3.83677,4.85566 0.46148,3.85718 2.93683,7.26027 5.14991,10.38371 3.54311,3.96075 7.98778,7.2352 13.05378,8.84122 h 0.34069 z m 3.19731,-5.92975 c -0.8388,-0.84522 -2.7071,-4.26744 -3.51704,-3.21235 0.42969,0.98618 2.39016,4.02452 3.51704,3.21235 z m 4.47623,-1.13927 c -0.6425,-1.0872 -2.46504,-4.12623 -3.51704,-3.49302 0.63383,0.83497 2.6797,4.64008 3.51704,3.49302 z m 9.2189,-0.21512 c -1.36569,-1.65289 -3.15878,-3.01129 -4.6886,-4.55109 -0.91385,1.65033 2.35755,2.81309 3.13027,4.26694 0.10163,0.58609 1.82727,0.87312 1.55833,0.28415 z m 20.35618,-8.35286 c -0.3359,-1.39631 -1.93785,1.20187 -0.0102,0.0166 z m 1.91839,-0.85192 c 0.96471,-0.81629 5.33918,-1.41052 3.09361,-2.21655 -1.57592,0.59885 -4.00061,1.36961 -4.5324,2.74946 0.46544,-0.21034 0.96254,-0.34841 1.43879,-0.53291 z m -27.18581,-5.97574 c 1.64839,-1.51577 1.96397,-4.06235 2.08695,-6.19932 2.34109,-0.6595 3.65469,-2.8629 0.40728,-1.31395 -2.2092,1.02245 -5.16151,0.57881 -6.80189,-1.00273 1.40256,-0.5386 4.41135,-0.88634 4.47622,-3.18352 0.1693,-1.94711 -2.72816,-2.14863 -4.17088,-2.14347 -2.53639,-0.64666 -4.97937,1.0297 -3.53385,2.82722 -0.62168,2.39551 0.70018,1.77034 1.39074,2.82864 0.39785,2.89756 -0.60406,6.78026 2.26588,8.5969 1.2764,0.7946 3.04862,1.22631 3.87955,-0.40977 z m -3.25539,-0.6719 c -1.38744,-1.2478 -2.02129,-3.54111 -2.00147,-5.42046 1.0571,-1.89942 3.56965,1.10079 5.50418,0.15951 2.01049,0.057 0.10551,3.76208 -0.66888,4.787 -0.71125,0.93328 -1.89829,1.43115 -2.83383,0.47395 z m 51.98002,-8.90023 c 3.05641,-2.07411 -0.76373,-1.55547 -1.87539,0.16261 -0.36583,1.97934 1.17231,0.26081 1.87539,-0.16261 z m -4.51317,-1.98828 c 3.01794,-1.61142 -0.33614,-1.58036 -1.62253,-0.14092 -1.76034,1.69543 0.93156,0.87101 1.62253,0.14092 z m 7.03468,-3.69635 c 2.86493,-1.17585 1.22101,-2.68995 -0.67927,-0.60897 -2.61653,1.38819 -1.25199,2.37899 0.67927,0.60897 z m -49.42162,-3.60006 c -1.92409,0.67208 -1.23467,4.61271 0.48305,3.99161 2.32206,-0.52543 0.60992,-4.24626 -0.48305,-3.99161 z m -6.77308,0.0159 c -0.91133,0.8357 -0.21627,4.69237 1.44851,3.36547 1.5394,-1.41646 1.02991,-4.20687 -1.44851,-3.36547 z m 52.09773,1.57245 c 2.99481,-1.52571 1.26884,-2.75512 -0.75668,-0.56372 -2.85356,1.79723 -1.59365,2.82281 0.75668,0.56372 z m 21.46156,0.0961 c 1.66493,-1.90557 2.78847,-4.62897 2.69039,-7.017 -0.87126,-2.08941 -3.76054,-1.95814 -4.92204,-0.16713 -2.04816,1.69331 -3.94554,3.55499 -5.89555,5.35789 1.3102,1.48769 2.23464,-2.2813 3.99238,-1.81901 1.5714,-1.14585 3.19637,-2.22914 4.48873,-3.7008 2.04094,1.60149 0.0139,4.45618 -0.84113,6.31573 -1.09876,1.38883 -1.24639,3.434 0.48722,1.03032 z m -18.98706,-5.55201 c 1.40326,-1.09028 3.66212,-1.03881 4.42909,-3.02141 1.41904,-2.4843 0.95892,-6.15779 -1.90917,-7.29289 -1.63952,-1.52909 -3.8317,0.40663 -5.55262,-1.09483 -2.67327,-1.27703 -6.06996,2.16856 -4.22713,4.7038 -0.16186,1.88828 -1.2377,3.85071 0.5114,5.45012 1.92665,1.55825 4.41659,1.43338 6.74843,1.25521 z m -2.61456,-1.26062 c -1.51358,-0.84114 -4.45064,0.42435 -3.90633,-2.44501 1.24299,-1.88891 0.37976,-3.27964 0.1057,-4.73938 -0.0337,-1.90348 3.89218,-2.90454 3.54018,-0.70014 -1.35109,1.61392 0.8066,4.69032 2.63668,3.12759 1.3446,-1.25789 -0.51004,-4.56541 2.54527,-2.77272 1.67965,1.69925 1.49227,4.83413 -0.33485,6.49778 -0.77468,1.71564 -3.14163,1.99531 -4.58665,1.03188 z"
         id="path8136"
         sodipodi:nodetypes="scccccccccccssccccccccccccccccccccccccccccccccccccccccccccccccccccccccccccccccccccccccccccccccccccccccccccccc"
         inkscape:label="path8136" /><path
         style="fill:#693c03;fill-opacity:1;stroke-width:0.0225957"
         d="m -668.0266,595.8539 c -0.0615,-0.32439 -0.0644,-0.36677 -0.0632,-0.94955 9.8e-4,-0.68058 0.0341,-1.04852 0.14483,-1.62289 0.24947,-1.29511 0.73597,-2.39342 1.49895,-3.38388 0.24743,-0.32122 0.72695,-0.82055 1.02541,-1.0678 0.13187,-0.10916 0.272,-0.24936 0.32716,-0.32716 0.53952,-0.76062 1.60444,-1.20162 2.90218,-1.20185 0.85789,-1.6e-4 1.62918,0.1651 2.2796,0.48842 0.37269,0.18526 0.5761,0.35259 0.79494,0.65402 0.24096,0.33189 0.3294,0.56268 0.32977,0.86057 4.1e-4,0.32522 -0.12735,0.59623 -0.4322,0.91676 -0.28916,0.30403 -0.65216,0.55955 -1.55791,1.09661 -0.83649,0.49598 -1.11429,0.68042 -1.38094,0.91682 -0.07,0.0621 -0.20023,0.14302 -0.30556,0.18997 -0.40757,0.18166 -0.99091,0.58327 -1.47989,1.01888 -0.10979,0.0979 -0.44414,0.41307 -0.74302,0.70061 -1.1134,1.07119 -1.4486,1.35378 -1.96288,1.65489 -0.38315,0.2243 -0.90334,0.39512 -1.2033,0.39512 h -0.10953 z"
         id="path8141" /><path
         style="fill:#693c03;fill-opacity:1;stroke-width:0.0308541"
         d="m -742.87187,513.74968 c -0.18523,-0.89249 -0.23321,-1.29402 -0.255,-2.13403 -0.0378,-1.45896 0.17991,-2.58371 0.7204,-3.72085 0.32383,-0.68135 0.67034,-1.17852 1.18909,-1.70614 0.71358,-0.72576 1.43271,-1.13669 2.18766,-1.25005 0.3508,-0.0527 1.06482,-0.0214 1.41908,0.0622 0.93387,0.22031 1.97732,0.76336 2.85378,1.48521 0.16297,0.13422 0.2896,0.25519 0.2814,0.26881 -0.009,0.0137 -0.12784,0.0916 -0.26587,0.1731 -0.88125,0.52086 -2.57491,1.63519 -3.43256,2.25843 -1.92279,1.39728 -3.28748,2.68948 -4.035,3.82072 -0.18262,0.27637 -0.44698,0.80151 -0.50693,1.00696 -0.019,0.0653 -0.0441,0.11868 -0.0556,0.11868 -0.0115,0 -0.0567,-0.17236 -0.10043,-0.38303 z"
         id="path8139"
         transform="translate(102.38265,79.784676)" /><path
         style="fill:#000000;fill-opacity:1"
         id="path8144"
         d="m -637.36129,592.55256 c -0.12257,-0.21056 -0.21217,-0.43846 -0.26714,-0.67587 -0.019,-0.082 -0.0322,-0.16514 -0.0483,-0.24771 -0.0719,-0.59086 -0.0425,-1.19275 0.06,-1.77858 0.0204,-0.11642 0.049,-0.23125 0.0735,-0.34688 0.099,-0.37354 0.2465,-0.73528 0.46283,-1.05699 0.11284,-0.16781 0.15532,-0.20383 0.28849,-0.34942 0.18418,-0.1648 0.39438,-0.29382 0.63215,-0.364 0.13694,-0.0404 0.19104,-0.0442 0.33251,-0.0666 0.0589,-0.005 0.11764,-0.0138 0.17672,-0.0137 0.0613,6e-5 0.12245,0.007 0.18328,0.0141 0.3321,0.0399 0.64713,0.14577 0.96016,0.25875 0.39736,0.1512 0.75928,0.37274 1.09471,0.63136 0.16883,0.13925 0.32323,0.2958 0.45894,0.46758 0.0713,0.0902 0.15359,0.21051 0.21888,0.30346 0.17079,0.26214 0.35471,0.51722 0.48982,0.8003 0.0438,0.10141 0.0827,0.20486 0.11888,0.30917 0.17615,0.50465 0.88983,0.25554 0.71368,-0.24911 v 0 c -0.0462,-0.1317 -0.0951,-0.26256 -0.1524,-0.38988 -0.0228,-0.0466 -0.0443,-0.0939 -0.0685,-0.13977 -0.1408,-0.26723 -0.32085,-0.51173 -0.48323,-0.76568 -0.09,-0.12767 -0.16236,-0.23448 -0.25992,-0.35661 -0.17046,-0.2134 -0.36465,-0.4072 -0.57642,-0.57951 -0.0571,-0.0435 -0.11296,-0.0885 -0.17113,-0.13043 -0.34841,-0.2513 -0.72774,-0.45691 -1.12818,-0.61243 -0.0945,-0.0337 -0.18809,-0.07 -0.28348,-0.10105 -0.37954,-0.12361 -0.77694,-0.2201 -1.17883,-0.21344 -0.0794,10e-4 -0.15813,0.0142 -0.23719,0.0213 -0.1959,0.0338 -0.27789,0.0409 -0.46873,0.1026 -0.35338,0.11418 -0.66579,0.31169 -0.93356,0.56796 -0.17652,0.19855 -0.22578,0.24 -0.37485,0.46625 -0.25966,0.39409 -0.43727,0.8352 -0.55447,1.29096 -0.0274,0.13242 -0.0593,0.26399 -0.0823,0.39726 -0.11534,0.66948 -0.14338,1.35717 -0.0526,2.03102 0.0207,0.10162 0.0376,0.20408 0.062,0.30486 0.076,0.31334 0.19823,0.61458 0.36573,0.89006 0.29649,0.44473 0.92544,0.0254 0.62895,-0.4193 z"
         transform="translate(-2.0772621e-6)" /><path
         style="fill:#000000;fill-opacity:1"
         id="path8147"
         d="m -637.41793,594.14291 c 0.0653,0.0945 0.14454,0.17977 0.20721,0.27587 0.0321,0.046 0.0679,0.0892 0.10117,0.1343 0.31919,0.42873 0.92551,-0.0227 0.60632,-0.45141 v 0 c -0.0282,-0.0377 -0.0572,-0.0745 -0.0854,-0.11226 -0.072,-0.10209 -0.15057,-0.19941 -0.22461,-0.30005 -0.32071,-0.4276 -0.92543,0.0259 -0.60473,0.45355 z" /><path
         style="fill:#693c03;fill-opacity:1;stroke-width:0.0330209"
         d="m -734.91273,521.8683 c -0.0512,-0.009 -0.21863,-0.0323 -0.37215,-0.0542 -0.58506,-0.083 -1.31131,-0.32896 -2.01622,-0.6826 -1.54149,-0.77339 -3.02131,-2.29256 -4.18067,-4.29186 -0.25454,-0.43895 -0.70329,-1.30586 -0.70333,-1.35873 -10e-6,-0.0143 0.10111,0.0512 0.22483,0.14526 1.80726,1.37589 5.5833,2.30217 11.30349,2.77281 l 0.31737,0.0261 -0.16527,0.38675 c -0.26404,0.61791 -0.56653,1.09837 -1.01031,1.60474 -0.68234,0.77858 -1.38895,1.21162 -2.26049,1.3853 -0.26835,0.0534 -0.96101,0.0939 -1.13725,0.0664 z"
         id="path8140"
         transform="translate(102.38265,79.784676)" /></g></g></svg>
