<?xml version="1.0" encoding="UTF-8" standalone="no"?>
<!-- Created with Inkscape (http://www.inkscape.org/) -->

<svg
   width="83.298866mm"
   height="53.679123mm"
   viewBox="0 0 83.298866 53.679122"
   version="1.1"
   id="svg1"
   xml:space="preserve"
   xmlns:inkscape="http://www.inkscape.org/namespaces/inkscape"
   xmlns:sodipodi="http://sodipodi.sourceforge.net/DTD/sodipodi-0.dtd"
   xmlns="http://www.w3.org/2000/svg"
   xmlns:svg="http://www.w3.org/2000/svg"><sodipodi:namedview
     id="namedview1"
     pagecolor="#ffffff"
     bordercolor="#000000"
     borderopacity="0.25"
     inkscape:showpageshadow="2"
     inkscape:pageopacity="0.0"
     inkscape:pagecheckerboard="0"
     inkscape:deskcolor="#d1d1d1"
     inkscape:document-units="mm"
     inkscape:zoom="0.54208404"
     inkscape:cx="156.80226"
     inkscape:cy="570.02232"
     inkscape:window-width="2560"
     inkscape:window-height="1494"
     inkscape:window-x="-11"
     inkscape:window-y="1609"
     inkscape:window-maximized="1"
     inkscape:current-layer="layer1"><inkscape:page
       x="4.1127214e-06"
       y="9.3532981e-06"
       width="83.298866"
       height="53.679123"
       id="page1"
       margin="0"
       bleed="0" /></sodipodi:namedview><defs
     id="defs1" /><g
     id="g1"
     inkscape:groupmode="layer"
     inkscape:label="1"
     transform="matrix(0.26458333,0,0,0.26458334,187.60364,-231.95103)"><path
       style="fill:#fabcad;fill-opacity:1"
       id="path8214"
       d="m -682.61913,1046.0472 c 0,-3.7131 0,-7.4262 0,-11.1393 0,-18.6917 -26.43402,-18.6917 -26.43402,0 v 0 c 0,3.7131 0,7.4262 0,11.1393 0,18.6917 26.43402,18.6917 26.43402,0 z" /><path
       style="fill:#fabcad;fill-opacity:1"
       id="path8215"
       d="m -631.74664,1043.2824 c -1.09993,-17.3015 -0.53755,-34.6005 0.40227,-51.89052 1.12036,-22.84822 2.78038,-45.65823 4.48658,-68.46801 1.39425,-18.6396 -24.96613,-20.61136 -26.36038,-1.97177 v 0 c -1.71973,22.99112 -3.3903,45.98273 -4.52165,69.01244 -0.95573,17.76196 -1.5897,35.54406 -0.44084,53.31786 0,18.6916 26.43402,18.6916 26.43402,0 z" /><path
       style="fill:#fabcad;fill-opacity:1"
       id="path8216"
       d="m -596.5299,1041.0879 c 1.07193,-4.7959 2.19884,-9.579 3.30314,-14.3675 4.19987,-18.2137 -21.55823,-24.1532 -25.7581,-5.9395 v 0 c -1.11981,4.8569 -2.26237,9.7083 -3.34958,14.5726 -4.05479,18.2466 21.74975,23.9809 25.80454,5.7344 z" /><path
       style="fill:#fabcad;fill-opacity:1"
       id="path8217"
       d="m -459.56283,1058.4673 c 1.89615,-18.8985 6.84616,-37.3829 11.71093,-55.6931 8.07593,-27.9272 14.78863,-56.18517 20.41449,-84.69768 0.64198,-3.13042 1.28396,-6.26084 1.92595,-9.39125 3.7544,-18.31074 -22.14089,-23.62027 -25.89529,-5.30953 v 0 c -0.65503,3.19528 -1.31006,6.39056 -1.96509,9.58584 -5.51109,27.95558 -12.10788,55.65543 -20.03041,83.03495 -5.42997,20.50047 -11.03167,41.24757 -12.59459,62.47077 0,18.6917 26.43401,18.6917 26.43401,0 z" /><path
       style="fill:#fabcad;fill-opacity:1"
       id="path8218"
       d="m -411.68668,1073.728 c 3.8916,-5.0405 8.38571,-9.5209 12.89811,-13.9911 13.27827,-13.1555 -5.32635,-31.9338 -18.60463,-18.7783 v 0 c -5.31901,5.2703 -10.56959,10.6047 -15.15922,16.5405 -11.47558,14.7543 9.39017,30.9832 20.86574,16.2289 z" /><path
       style="fill:#fabcad;fill-opacity:1"
       id="path8219"
       d="m -493.66744,1054.7608 c -0.47509,-11.9931 -2.9529,-23.7567 -5.71094,-35.3964 -0.51159,-1.929 -1.02318,-3.8581 -1.53477,-5.7871 -4.80589,-18.06325 -30.35122,-11.2667 -25.54533,6.7966 v 0 c 0.45384,1.6996 0.90769,3.3993 1.36154,5.0989 2.44055,10.249 4.68663,20.6028 5.06266,31.1713 1.33173,18.6442 27.69856,16.7609 26.36684,-1.8833 z" /><path
       style="fill:#fabcad;fill-opacity:1"
       id="path8220"
       d="m -525.99795,962.41886 c 0.46075,-2.95089 1.21151,-5.83668 1.97619,-8.71912 4.71799,-18.08644 -20.8601,-24.75868 -25.57809,-6.67225 v 0 c -1.08533,4.21313 -2.16808,8.4324 -2.70093,12.76109 -1.85989,18.59891 24.44293,21.22919 26.30283,2.63028 z" /><path
       style="fill:#fabcad;fill-opacity:1"
       id="path8221"
       d="m -562.8491,959.80018 c -0.97227,-13.45617 -0.0819,-26.94785 1.08996,-40.35785 0.89571,-9.19331 1.73573,-18.39168 2.55069,-27.59243 1.64887,-18.6188 -24.68209,-20.95066 -26.33096,-2.33185 v 0 c -0.81626,9.21883 -1.65948,18.4351 -2.55543,27.64659 -1.29684,15.13758 -2.27138,30.37495 -1.0266,45.55469 2.06415,18.57735 28.33649,15.6582 26.27234,-2.91915 z" /><path
       style="fill:#fabcad;fill-opacity:1"
       id="path8227"
       d="m -547.28252,1064.1657 c 1.13671,-3.893 1.64422,-7.9246 2.00831,-11.9517 1.64929,-18.6187 -24.68162,-20.9512 -26.33091,-2.3324 v 0 c -0.19286,2.2458 -0.41947,4.5031 -0.9966,6.6883 -5.37101,17.9034 19.94819,25.4992 25.3192,7.5958 z" /></g></svg>
